<svg width="512" height="512" viewBox="0 0 512 512" fill="none" xmlns="http://www.w3.org/2000/svg">
<rect width="512" height="512" fill="#FF3002"/>
<path d="M183 65C196.296 65 208.763 74.2768 219.5 90.4855C230.232 74.2843 242.692 65.0086 255.982 65L183 65Z" fill="white"/>
<path d="M183 65C142.683 65 110 150.29 110 255.5H183C183 184.988 197.68 123.424 219.5 90.4855C208.763 74.2768 196.296 65 183 65Z" fill="white"/>
<path d="M219.5 90.4855C241.32 123.424 256 184.988 256 255.5C256 184.988 270.68 123.424 292.5 90.4855C281.768 74.2843 269.308 65.0086 256.018 65L255.982 65C242.692 65.0086 230.232 74.2843 219.5 90.4855Z" fill="white"/>
<path d="M292.5 90.4855C270.68 123.424 256 184.988 256 255.5H329C329 184.988 314.32 123.424 292.5 90.4855Z" fill="white"/>
<path d="M219.5 420.514C241.32 387.576 256 326.012 256 255.5H183C183 326.012 197.68 387.576 219.5 420.514Z" fill="white"/>
<path d="M256 255.5C256 326.012 241.32 387.576 219.5 420.514C230.237 436.723 242.704 446 256 446C269.296 446 281.763 436.723 292.5 420.514C270.68 387.576 256 326.012 256 255.5Z" fill="white"/>
<path d="M256 446H329C315.704 446 303.237 436.723 292.5 420.514C281.763 436.723 269.296 446 256 446Z" fill="white"/>
<path d="M329 446C369.317 446 402 360.71 402 255.5H329C329 326.012 314.32 387.576 292.5 420.514C303.237 436.723 315.704 446 329 446Z" fill="white"/>
</svg>
