<svg width="292" height="381" viewBox="0 0 292 381" fill="none" xmlns="http://www.w3.org/2000/svg">
<path d="M219 381C259.317 381 292 295.71 292 190.5H219C219 261.012 204.32 322.576 182.5 355.514C160.68 322.576 146 261.012 146 190.5H73C73 261.012 87.6803 322.576 109.5 355.514C120.237 371.723 132.704 381 146 381H219Z" fill="white"/>
<path d="M73 0C32.6832 -1.76447e-06 4.59324e-06 85.2898 0 190.5H73C73 119.988 87.6803 58.4239 109.5 25.4855C131.32 58.4239 146 119.988 146 190.5H219C219 119.988 204.32 58.4239 182.5 25.4855C171.768 9.28429 159.308 0.00856873 146.018 5.93374e-06L145.982 5.93075e-06L73 0Z" fill="white"/>
</svg>
