<svg width="2174" height="381" viewBox="0 0 2174 381" fill="none" xmlns="http://www.w3.org/2000/svg">
<path d="M219 381C259.317 381 292 295.71 292 190.5H219C219 261.012 204.32 322.576 182.5 355.514C160.68 322.576 146 261.012 146 190.5H73C73 261.012 87.6803 322.576 109.5 355.514C120.237 371.723 132.704 381 146 381H219Z" fill="white"/>
<path d="M73 0C32.6832 -1.76447e-06 4.59324e-06 85.2898 0 190.5H73C73 119.988 87.6803 58.4239 109.5 25.4855C131.32 58.4239 146 119.988 146 190.5H219C219 119.988 204.32 58.4239 182.5 25.4855C171.768 9.28429 159.308 0.00856873 146.018 5.93374e-06L145.982 5.93075e-06L73 0Z" fill="white"/>
<path d="M471.726 307.411C437.632 307.411 412.426 295.858 396.11 272.752C380.037 249.645 372 217.297 372 175.706C372 134.114 380.037 101.766 396.11 78.6594C412.426 55.5531 437.632 44 471.726 44C505.82 44 530.904 55.5531 546.977 78.6594C563.293 101.766 571.452 134.114 571.452 175.706C571.452 217.297 563.293 249.645 546.977 272.752C530.904 295.858 505.82 307.411 471.726 307.411ZM471.726 263.266C487.312 263.266 498.027 257.55 503.872 246.119C509.96 234.444 513.004 218.27 513.004 197.596V153.451C513.004 133.02 509.96 117.089 503.872 105.657C498.027 93.9824 487.312 88.1451 471.726 88.1451C456.14 88.1451 445.303 93.9824 439.214 105.657C433.37 117.089 430.447 133.02 430.447 153.451V197.96C430.447 218.391 433.37 234.444 439.214 246.119C445.303 257.55 456.14 263.266 471.726 263.266Z" fill="white"/>
<path d="M597.651 114.778H651.715V149.073H654.272C658.899 137.884 665.596 128.642 674.363 121.345C683.13 114.048 695.063 110.4 710.162 110.4C720.634 110.4 730.131 112.346 738.655 116.237C747.422 120.129 754.85 126.088 760.938 134.114C767.27 142.141 772.141 152.356 775.55 164.76C779.203 177.165 781.029 191.88 781.029 208.906C781.029 225.931 779.203 240.646 775.55 253.051C772.141 265.455 767.27 275.67 760.938 283.697C754.85 291.723 747.422 297.682 738.655 301.574C730.131 305.465 720.634 307.411 710.162 307.411C695.063 307.411 683.13 303.884 674.363 296.831C665.596 289.534 658.899 280.17 654.272 268.738H651.715V376H597.651V114.778ZM686.783 265.455C698.96 265.455 708.335 261.807 714.911 254.51C721.486 246.97 724.774 236.633 724.774 223.499V194.312C724.774 181.178 721.486 170.963 714.911 163.666C708.335 156.126 698.96 152.356 686.783 152.356C677.285 152.356 669.005 154.667 661.943 159.288C655.124 163.909 651.715 171.206 651.715 181.178V236.633C651.715 246.605 655.124 253.902 661.943 258.523C669.005 263.144 677.285 265.455 686.783 265.455Z" fill="white"/>
<path d="M894.615 307.411C862.956 307.411 838.969 298.655 822.652 281.143C806.336 263.631 798.177 239.795 798.177 209.635C798.177 194.312 800.247 180.57 804.387 168.409C808.771 156.004 814.859 145.546 822.652 137.033C830.689 128.277 840.308 121.71 851.511 117.332C862.957 112.711 875.742 110.4 889.867 110.4C903.991 110.4 916.655 112.711 927.857 117.332C939.06 121.71 948.558 128.034 956.351 136.303C964.144 144.573 970.11 154.667 974.25 166.585C978.634 178.259 980.825 191.393 980.825 205.987V222.04H851.876V225.323C851.876 237.484 855.651 247.335 863.2 254.875C870.749 262.171 881.83 265.82 896.442 265.82C907.644 265.82 917.264 263.752 925.3 259.618C933.337 255.24 940.278 249.524 946.122 242.47L975.346 274.211C968.04 283.21 957.812 290.993 944.661 297.56C931.51 304.127 914.829 307.411 894.615 307.411ZM890.232 149.073C878.542 149.073 869.167 152.721 862.104 160.018C855.285 167.071 851.876 176.678 851.876 188.84V191.758H927.857V188.84C927.857 176.435 924.448 166.706 917.629 159.653C911.054 152.599 901.921 149.073 890.232 149.073Z" fill="white"/>
<path d="M1002.4 303.033V114.778H1056.46V149.073H1058.65C1060.84 143.722 1063.52 138.736 1066.69 134.114C1069.86 129.493 1073.63 125.48 1078.01 122.075C1082.64 118.426 1087.88 115.629 1093.72 113.684C1099.81 111.495 1106.63 110.4 1114.18 110.4C1123.19 110.4 1131.47 111.981 1139.02 115.143C1146.57 118.062 1153.02 122.561 1158.38 128.642C1163.74 134.722 1167.88 142.141 1170.8 150.897C1173.96 159.653 1175.55 169.747 1175.55 181.178V303.033H1121.48V188.475C1121.48 164.152 1110.89 151.991 1089.7 151.991C1085.56 151.991 1081.42 152.599 1077.28 153.815C1073.39 154.788 1069.86 156.491 1066.69 158.923C1063.52 161.112 1060.97 163.909 1059.02 167.314C1057.31 170.719 1056.46 174.733 1056.46 179.354V303.033H1002.4Z" fill="white"/>
<path d="M1314.38 93.2527V303.033H1259.59V93.2527H1186.16V48.378H1387.8V93.2527H1314.38Z" fill="white"/>
<path d="M1517.99 114.778H1573.15L1484.38 333.314C1478.78 347.178 1471.35 357.758 1462.1 365.055C1452.85 372.352 1440.18 376 1424.11 376H1386.85V334.044H1432.15L1443.84 301.938L1367.85 114.778H1425.94L1453.33 193.947L1470.5 248.673H1473.43L1489.86 193.947L1517.99 114.778Z" fill="white"/>
<path d="M1591.35 114.778H1645.42V149.073H1647.97C1652.6 137.884 1659.3 128.642 1668.07 121.345C1676.83 114.048 1688.77 110.4 1703.87 110.4C1714.34 110.4 1723.83 112.346 1732.36 116.237C1741.13 120.129 1748.55 126.088 1754.64 134.114C1760.97 142.141 1765.84 152.356 1769.25 164.76C1772.91 177.165 1774.73 191.88 1774.73 208.906C1774.73 225.931 1772.91 240.646 1769.25 253.051C1765.84 265.455 1760.97 275.67 1754.64 283.697C1748.55 291.723 1741.13 297.682 1732.36 301.574C1723.83 305.465 1714.34 307.411 1703.87 307.411C1688.77 307.411 1676.83 303.884 1668.07 296.831C1659.3 289.534 1652.6 280.17 1647.97 268.738H1645.42V376H1591.35V114.778ZM1680.49 265.455C1692.66 265.455 1702.04 261.807 1708.61 254.51C1715.19 246.97 1718.48 236.633 1718.48 223.499V194.312C1718.48 181.178 1715.19 170.963 1708.61 163.666C1702.04 156.126 1692.66 152.356 1680.49 152.356C1670.99 152.356 1662.71 154.667 1655.65 159.288C1648.83 163.909 1645.42 171.206 1645.42 181.178V236.633C1645.42 246.605 1648.83 253.902 1655.65 258.523C1662.71 263.144 1670.99 265.455 1680.49 265.455Z" fill="white"/>
<path d="M1888.28 307.411C1873.67 307.411 1860.52 305.222 1848.83 300.844C1837.14 296.223 1827.15 289.656 1818.87 281.143C1810.84 272.63 1804.63 262.293 1800.24 250.132C1795.86 237.971 1793.67 224.229 1793.67 208.906C1793.67 193.582 1795.86 179.84 1800.24 167.679C1804.63 155.518 1810.84 145.181 1818.87 136.668C1827.15 128.155 1837.14 121.71 1848.83 117.332C1860.52 112.711 1873.67 110.4 1888.28 110.4C1902.89 110.4 1916.04 112.711 1927.73 117.332C1939.42 121.71 1949.28 128.155 1957.32 136.668C1965.6 145.181 1971.93 155.518 1976.31 167.679C1980.7 179.84 1982.89 193.582 1982.89 208.906C1982.89 224.229 1980.7 237.971 1976.31 250.132C1971.93 262.293 1965.6 272.63 1957.32 281.143C1949.28 289.656 1939.42 296.223 1927.73 300.844C1916.04 305.222 1902.89 307.411 1888.28 307.411ZM1888.28 267.279C1900.45 267.279 1909.95 263.509 1916.77 255.969C1923.59 248.429 1927 237.727 1927 223.864V193.947C1927 180.084 1923.59 169.382 1916.77 161.842C1909.95 154.302 1900.45 150.532 1888.28 150.532C1876.1 150.532 1866.6 154.302 1859.79 161.842C1852.97 169.382 1849.56 180.084 1849.56 193.947V223.864C1849.56 237.727 1852.97 248.429 1859.79 255.969C1866.6 263.509 1876.1 267.279 1888.28 267.279Z" fill="white"/>
<path d="M2002.31 153.815V70.633H1977.11V48.378H2058.93V70.633H2033.73V153.815H2002.31ZM2066.6 153.815V48.378H2099.84L2120.3 87.4154H2122.49L2142.95 48.378H2174V153.815H2147.7V118.426L2150.62 84.4967H2149.16L2120.3 137.763L2091.44 84.4967H2089.98L2092.9 118.426V153.815H2066.6Z" fill="white"/>
</svg>
