<svg width="436" height="275" viewBox="0 0 436 275" fill="none" xmlns="http://www.w3.org/2000/svg">
<mask id="path-1-inside-1_13_15" fill="white">
<path fill-rule="evenodd" clip-rule="evenodd" d="M72 0C32.2355 0 0 32.2356 0 72.0001V132.575C0 177.902 36.7442 214.646 82.0704 214.646H217.802H252.459C258.895 214.646 264.89 217.914 268.377 223.322L277.21 237.022C292.321 260.459 318.3 274.62 346.187 274.62H353.534C398.86 274.62 435.604 237.876 435.604 192.55V127.131C435.604 91.7849 406.951 63.1311 371.604 63.1311H326.703H217.802L174.892 60.3173C171.639 60.104 168.725 58.2328 167.178 55.364L150.726 24.8678C142.462 9.54942 126.46 0 109.054 0H82.8595H72ZM369.317 143.096V195.707C369.317 206.166 360.837 214.646 350.378 214.646H267.46C264.308 214.646 261.378 213.024 259.706 210.352L233.045 167.773C230.337 163.448 226.471 159.97 221.885 157.733C218.16 155.916 214.07 154.971 209.926 154.971H82.0704C71.6105 154.971 63.1311 146.492 63.1311 136.032V82.0706C63.1311 71.6107 71.6105 63.1313 82.0704 63.1313H121.373H167.939C168.721 63.1313 169.519 63.2195 170.262 63.4628C179.977 66.6469 183.412 77.6213 187.093 89.3799C192.291 105.986 197.979 124.156 222.537 124.156H292.77H350.378C360.837 124.156 369.317 132.636 369.317 143.096Z"/>
</mask>
<path fill-rule="evenodd" clip-rule="evenodd" d="M72 0C32.2355 0 0 32.2356 0 72.0001V132.575C0 177.902 36.7442 214.646 82.0704 214.646H217.802H252.459C258.895 214.646 264.89 217.914 268.377 223.322L277.21 237.022C292.321 260.459 318.3 274.62 346.187 274.62H353.534C398.86 274.62 435.604 237.876 435.604 192.55V127.131C435.604 91.7849 406.951 63.1311 371.604 63.1311H326.703H217.802L174.892 60.3173C171.639 60.104 168.725 58.2328 167.178 55.364L150.726 24.8678C142.462 9.54942 126.46 0 109.054 0H82.8595H72ZM369.317 143.096V195.707C369.317 206.166 360.837 214.646 350.378 214.646H267.46C264.308 214.646 261.378 213.024 259.706 210.352L233.045 167.773C230.337 163.448 226.471 159.97 221.885 157.733C218.16 155.916 214.07 154.971 209.926 154.971H82.0704C71.6105 154.971 63.1311 146.492 63.1311 136.032V82.0706C63.1311 71.6107 71.6105 63.1313 82.0704 63.1313H121.373H167.939C168.721 63.1313 169.519 63.2195 170.262 63.4628C179.977 66.6469 183.412 77.6213 187.093 89.3799C192.291 105.986 197.979 124.156 222.537 124.156H292.77H350.378C360.837 124.156 369.317 132.636 369.317 143.096Z" fill="black"/>
<path d="M268.377 223.322L271.03 221.612L271.03 221.612L268.377 223.322ZM277.21 237.022L274.557 238.732L274.557 238.732L277.21 237.022ZM217.802 63.1311L217.596 66.2809L217.699 66.2876H217.802V63.1311ZM174.892 60.3173L175.099 57.1675L175.099 57.1675L174.892 60.3173ZM167.178 55.364L169.956 53.8653L169.956 53.8653L167.178 55.364ZM150.726 24.8678L153.504 23.3691L153.504 23.3691L150.726 24.8678ZM259.706 210.352L257.03 212.027L257.03 212.027L259.706 210.352ZM233.045 167.773L230.37 169.448L230.37 169.448L233.045 167.773ZM221.885 157.733L223.269 154.896L223.269 154.896L221.885 157.733ZM170.262 63.4628L171.245 60.4633L171.245 60.4633L170.262 63.4628ZM187.093 89.3799L184.081 90.3229L184.081 90.3229L187.093 89.3799ZM3.15655 72.0001C3.15655 33.9789 33.9788 3.15655 72 3.15655V-3.15655C30.4922 -3.15655 -3.15655 30.4922 -3.15655 72.0001H3.15655ZM3.15655 132.575V72.0001H-3.15655V132.575H3.15655ZM82.0704 211.489C38.4875 211.489 3.15655 176.158 3.15655 132.575H-3.15655C-3.15655 179.645 35.0009 217.802 82.0704 217.802V211.489ZM217.802 211.489H82.0704V217.802H217.802V211.489ZM252.459 211.489H217.802V217.802H252.459V211.489ZM271.03 221.612C266.962 215.302 259.968 211.489 252.459 211.489V217.802C257.822 217.802 262.818 220.525 265.724 225.033L271.03 221.612ZM279.863 235.311L271.03 221.612L265.724 225.033L274.557 238.732L279.863 235.311ZM346.187 271.464C319.372 271.464 294.393 257.848 279.863 235.311L274.557 238.732C290.249 263.071 317.227 277.777 346.187 277.777V271.464ZM353.534 271.464H346.187V277.777H353.534V271.464ZM432.448 192.55C432.448 236.133 397.117 271.464 353.534 271.464V277.777C400.604 277.777 438.761 239.619 438.761 192.55H432.448ZM432.448 127.131V192.55H438.761V127.131H432.448ZM371.604 66.2876C405.207 66.2876 432.448 93.5282 432.448 127.131H438.761C438.761 90.0415 408.694 59.9745 371.604 59.9745V66.2876ZM326.703 66.2876H371.604V59.9745H326.703V66.2876ZM217.802 66.2876H326.703V59.9745H217.802V66.2876ZM174.686 63.4671L217.596 66.2809L218.009 59.9813L175.099 57.1675L174.686 63.4671ZM164.399 56.8627C166.463 60.6878 170.349 63.1827 174.686 63.4671L175.099 57.1675C172.93 57.0253 170.987 55.7779 169.956 53.8653L164.399 56.8627ZM147.948 26.3665L164.399 56.8627L169.956 53.8653L153.504 23.3691L147.948 26.3665ZM109.054 3.15655C125.299 3.15655 140.235 12.0693 147.948 26.3665L153.504 23.3691C144.689 7.02949 127.62 -3.15655 109.054 -3.15655V3.15655ZM82.8595 3.15655H109.054V-3.15655H82.8595V3.15655ZM72 3.15655H82.8595V-3.15655H72V3.15655ZM372.473 195.707V143.096H366.16V195.707H372.473ZM350.378 217.802C362.581 217.802 372.473 207.91 372.473 195.707H366.16C366.16 204.423 359.094 211.489 350.378 211.489V217.802ZM267.46 217.802H350.378V211.489H267.46V217.802ZM257.03 212.027C259.28 215.62 263.221 217.802 267.46 217.802V211.489C265.396 211.489 263.477 210.427 262.381 208.677L257.03 212.027ZM230.37 169.448L257.03 212.027L262.381 208.677L235.72 166.097L230.37 169.448ZM220.501 160.57C224.556 162.548 227.975 165.624 230.37 169.448L235.72 166.097C232.699 161.272 228.385 157.391 223.269 154.896L220.501 160.57ZM209.926 158.128C213.59 158.128 217.207 158.963 220.501 160.57L223.269 154.896C219.113 152.868 214.55 151.815 209.926 151.815V158.128ZM82.0704 158.128H209.926V151.815H82.0704V158.128ZM59.9745 136.032C59.9745 148.235 69.8672 158.128 82.0704 158.128V151.815C73.3538 151.815 66.2876 144.748 66.2876 136.032H59.9745ZM59.9745 82.0706V136.032H66.2876V82.0706H59.9745ZM82.0704 59.9747C69.8672 59.9747 59.9745 69.8674 59.9745 82.0706H66.2876C66.2876 73.354 73.3538 66.2878 82.0704 66.2878V59.9747ZM121.373 59.9747H82.0704V66.2878H121.373V59.9747ZM167.939 59.9747H121.373V66.2878H167.939V59.9747ZM171.245 60.4633C170.093 60.0857 168.941 59.9747 167.939 59.9747V66.2878C168.5 66.2878 168.946 66.3532 169.279 66.4624L171.245 60.4633ZM190.106 88.4369C188.291 82.6391 186.422 76.6283 183.707 71.686C180.948 66.6646 177.129 62.3918 171.245 60.4633L169.279 66.4624C173.11 67.718 175.866 70.5243 178.174 74.7257C180.525 79.0063 182.215 84.3621 184.081 90.3229L190.106 88.4369ZM222.537 121C211.207 121 204.576 116.887 200.048 111.059C195.32 104.973 192.744 96.8665 190.106 88.4369L184.081 90.3229C186.64 98.4995 189.507 107.781 195.063 114.932C200.818 122.341 209.31 127.313 222.537 127.313V121ZM292.77 121H222.537V127.313H292.77V121ZM350.378 121H292.77V127.313H350.378V121ZM372.473 143.096C372.473 130.893 362.581 121 350.378 121V127.313C359.094 127.313 366.16 134.379 366.16 143.096H372.473Z" fill="black" mask="url(#path-1-inside-1_13_15)"/>
</svg>
