<svg width="984" height="205" viewBox="0 0 984 205" fill="none" xmlns="http://www.w3.org/2000/svg">
<path d="M515 165L515 189" stroke="#FF9881" stroke-width="1.6" stroke-linecap="round"/>
<path d="M527 165L527 177" stroke="#FFD4CA" stroke-linecap="round"/>
<path d="M539 165L539 177" stroke="#FFD4CA" stroke-linecap="round"/>
<path d="M551 165L551 177" stroke="#FFD4CA" stroke-linecap="round"/>
<path d="M563 165L563 177" stroke="#FFD4CA" stroke-linecap="round"/>
<path d="M575 165L575 189" stroke="#FFD4CA" stroke-width="1.6" stroke-linecap="round"/>
<path d="M587 165L587 177" stroke="#FFD4CA" stroke-linecap="round"/>
<path d="M599 165L599 177" stroke="#FFD4CA" stroke-linecap="round"/>
<path d="M611 165L611 177" stroke="#FFD4CA" stroke-linecap="round"/>
<path d="M623 165L623 177" stroke="#FFD4CA" stroke-linecap="round"/>
<path d="M635 165L635 189" stroke="#FFD4CA" stroke-width="1.6" stroke-linecap="round"/>
<path d="M647 165L647 177" stroke="#FFD4CA" stroke-linecap="round"/>
<path d="M659 165L659 177" stroke="#FFD4CA" stroke-linecap="round"/>
<path d="M671 165L671 177" stroke="#FFD4CA" stroke-linecap="round"/>
<path d="M683 165L683 177" stroke="#FFD4CA" stroke-linecap="round"/>
<path d="M695 165L695 189" stroke="#FFD4CA" stroke-width="1.6" stroke-linecap="round"/>
<path d="M707 165L707 177" stroke="#FFD4CA" stroke-linecap="round"/>
<path d="M719 165L719 177" stroke="#FFD4CA" stroke-linecap="round"/>
<path d="M731 165L731 177" stroke="#FFD4CA" stroke-linecap="round"/>
<path d="M743 165L743 177" stroke="#FFD4CA" stroke-linecap="round"/>
<path d="M755 165L755 189" stroke="#FFD4CA" stroke-width="1.6" stroke-linecap="round"/>
<path d="M767 165L767 177" stroke="#FFD4CA" stroke-linecap="round"/>
<path d="M779 165L779 177" stroke="#FFD4CA" stroke-linecap="round"/>
<path d="M791 165L791 177" stroke="#FFD4CA" stroke-linecap="round"/>
<path d="M803 165L803 177" stroke="#FFD4CA" stroke-linecap="round"/>
<path d="M815 165L815 189" stroke="#FFD4CA" stroke-width="1.6" stroke-linecap="round"/>
<path d="M827 165L827 177" stroke="#FFD4CA" stroke-linecap="round"/>
<path d="M839 165L839 177" stroke="#FFD4CA" stroke-linecap="round"/>
<path d="M851 165L851 177" stroke="#FFD4CA" stroke-linecap="round"/>
<path d="M863 165L863 177" stroke="#FFD4CA" stroke-linecap="round"/>
<path d="M875 165L875 189" stroke="#FF9881" stroke-width="1.6" stroke-linecap="round"/>
<path d="M887 165L887 177" stroke="#E4E4E4" stroke-linecap="round"/>
<path d="M899 165L899 177" stroke="#E4E4E4" stroke-linecap="round"/>
<path d="M911 165L911 177" stroke="#E4E4E4" stroke-linecap="round"/>
<path d="M923 165L923 177" stroke="#E4E4E4" stroke-linecap="round"/>
<path d="M935 165L935 189" stroke="#E4E4E4" stroke-width="1.6" stroke-linecap="round"/>
<path d="M947 165L947 177" stroke="#E4E4E4" stroke-linecap="round"/>
<path d="M959 165L959 177" stroke="#E4E4E4" stroke-linecap="round"/>
<path d="M971 165L971 177" stroke="#E4E4E4" stroke-linecap="round"/>
<path d="M983 165L983 177" stroke="#E4E4E4" stroke-linecap="round"/>
<line x1="515" y1="145" x2="935" y2="145" stroke="#FF3002" stroke-width="2" stroke-dasharray="2 2"/>
<rect width="22" height="12" transform="translate(935 134)" fill="#FF3002"/>
<path d="M946.002 143.108C945.594 143.108 945.24 143.036 944.94 142.892C944.64 142.742 944.391 142.529 944.193 142.253C944.001 141.977 943.857 141.638 943.761 141.236C943.671 140.834 943.626 140.375 943.626 139.859C943.626 139.349 943.671 138.893 943.761 138.491C943.857 138.083 944.001 137.741 944.193 137.465C944.391 137.189 944.64 136.979 944.94 136.835C945.24 136.685 945.594 136.61 946.002 136.61C946.818 136.61 947.418 136.895 947.802 137.465C948.186 138.035 948.378 138.833 948.378 139.859C948.378 140.885 948.186 141.683 947.802 142.253C947.418 142.823 946.818 143.108 946.002 143.108ZM946.002 142.163C946.434 142.163 946.737 142.01 946.911 141.704C947.091 141.392 947.181 140.963 947.181 140.417V139.301C947.181 138.755 947.091 138.329 946.911 138.023C946.737 137.711 946.434 137.555 946.002 137.555C945.57 137.555 945.264 137.711 945.084 138.023C944.91 138.329 944.823 138.755 944.823 139.301V140.417C944.823 140.963 944.91 141.392 945.084 141.704C945.264 142.01 945.57 142.163 946.002 142.163ZM946.002 140.39C945.792 140.39 945.645 140.348 945.561 140.264C945.483 140.18 945.444 140.078 945.444 139.958V139.76C945.444 139.64 945.483 139.538 945.561 139.454C945.645 139.37 945.792 139.328 946.002 139.328C946.212 139.328 946.356 139.37 946.434 139.454C946.518 139.538 946.56 139.64 946.56 139.76V139.958C946.56 140.078 946.518 140.18 946.434 140.264C946.356 140.348 946.212 140.39 946.002 140.39Z" fill="white"/>
<line x1="520" y1="55.5" x2="913" y2="55.5" stroke="#BCBCBC" stroke-dasharray="2 2"/>
<rect width="22" height="12" transform="translate(913 44)" fill="#BCBCBC"/>
<path d="M920.949 48.328H918.389L918.253 50.2H918.317C918.381 50.0827 918.45 49.976 918.525 49.88C918.599 49.7787 918.685 49.6933 918.781 49.624C918.882 49.5547 918.994 49.5013 919.117 49.464C919.245 49.4267 919.391 49.408 919.557 49.408C919.791 49.408 920.013 49.448 920.221 49.528C920.429 49.608 920.61 49.7227 920.765 49.872C920.919 50.0213 921.039 50.2053 921.125 50.424C921.215 50.6427 921.261 50.8907 921.261 51.168C921.261 51.4453 921.213 51.7013 921.117 51.936C921.026 52.1707 920.89 52.376 920.709 52.552C920.533 52.7227 920.314 52.856 920.053 52.952C919.797 53.048 919.501 53.096 919.165 53.096C918.903 53.096 918.669 53.0667 918.461 53.008C918.258 52.9547 918.079 52.88 917.925 52.784C917.77 52.688 917.634 52.5787 917.517 52.456C917.399 52.328 917.298 52.1973 917.213 52.064L917.973 51.464C918.037 51.5707 918.106 51.672 918.181 51.768C918.261 51.8587 918.349 51.9387 918.445 52.008C918.541 52.0773 918.647 52.1333 918.765 52.176C918.887 52.2133 919.026 52.232 919.181 52.232C919.501 52.232 919.743 52.1467 919.909 51.976C920.079 51.8 920.165 51.56 920.165 51.256V51.192C920.165 50.8987 920.079 50.6693 919.909 50.504C919.738 50.3387 919.498 50.256 919.189 50.256C918.954 50.256 918.762 50.3013 918.613 50.392C918.469 50.4773 918.351 50.5707 918.261 50.672L917.405 50.552L917.613 47.416H920.949V48.328ZM924.002 53.096C923.639 53.096 923.324 53.032 923.058 52.904C922.791 52.7707 922.57 52.5813 922.394 52.336C922.223 52.0907 922.095 51.7893 922.01 51.432C921.93 51.0747 921.89 50.6667 921.89 50.208C921.89 49.7547 921.93 49.3493 922.01 48.992C922.095 48.6293 922.223 48.3253 922.394 48.08C922.57 47.8347 922.791 47.648 923.058 47.52C923.324 47.3867 923.639 47.32 924.002 47.32C924.727 47.32 925.26 47.5733 925.602 48.08C925.943 48.5867 926.114 49.296 926.114 50.208C926.114 51.12 925.943 51.8293 925.602 52.336C925.26 52.8427 924.727 53.096 924.002 53.096ZM924.002 52.256C924.386 52.256 924.655 52.12 924.81 51.848C924.97 51.5707 925.05 51.1893 925.05 50.704V49.712C925.05 49.2267 924.97 48.848 924.81 48.576C924.655 48.2987 924.386 48.16 924.002 48.16C923.618 48.16 923.346 48.2987 923.186 48.576C923.031 48.848 922.954 49.2267 922.954 49.712V50.704C922.954 51.1893 923.031 51.5707 923.186 51.848C923.346 52.12 923.618 52.256 924.002 52.256ZM924.002 50.68C923.815 50.68 923.684 50.6427 923.61 50.568C923.54 50.4933 923.506 50.4027 923.506 50.296V50.12C923.506 50.0133 923.54 49.9227 923.61 49.848C923.684 49.7733 923.815 49.736 924.002 49.736C924.188 49.736 924.316 49.7733 924.386 49.848C924.46 49.9227 924.498 50.0133 924.498 50.12V50.296C924.498 50.4027 924.46 50.4933 924.386 50.568C924.316 50.6427 924.188 50.68 924.002 50.68ZM928.798 53.096C928.436 53.096 928.121 53.032 927.854 52.904C927.588 52.7707 927.366 52.5813 927.19 52.336C927.02 52.0907 926.892 51.7893 926.806 51.432C926.726 51.0747 926.686 50.6667 926.686 50.208C926.686 49.7547 926.726 49.3493 926.806 48.992C926.892 48.6293 927.02 48.3253 927.19 48.08C927.366 47.8347 927.588 47.648 927.854 47.52C928.121 47.3867 928.436 47.32 928.798 47.32C929.524 47.32 930.057 47.5733 930.398 48.08C930.74 48.5867 930.91 49.296 930.91 50.208C930.91 51.12 930.74 51.8293 930.398 52.336C930.057 52.8427 929.524 53.096 928.798 53.096ZM928.798 52.256C929.182 52.256 929.452 52.12 929.606 51.848C929.766 51.5707 929.846 51.1893 929.846 50.704V49.712C929.846 49.2267 929.766 48.848 929.606 48.576C929.452 48.2987 929.182 48.16 928.798 48.16C928.414 48.16 928.142 48.2987 927.982 48.576C927.828 48.848 927.75 49.2267 927.75 49.712V50.704C927.75 51.1893 927.828 51.5707 927.982 51.848C928.142 52.12 928.414 52.256 928.798 52.256ZM928.798 50.68C928.612 50.68 928.481 50.6427 928.406 50.568C928.337 50.4933 928.302 50.4027 928.302 50.296V50.12C928.302 50.0133 928.337 49.9227 928.406 49.848C928.481 49.7733 928.612 49.736 928.798 49.736C928.985 49.736 929.113 49.7733 929.182 49.848C929.257 49.9227 929.294 50.0133 929.294 50.12V50.296C929.294 50.4027 929.257 50.4933 929.182 50.568C929.113 50.6427 928.985 50.68 928.798 50.68Z" fill="white"/>
<line x1="500" y1="17.5" x2="891" y2="17.5" stroke="#DFDFDF" stroke-dasharray="2 2"/>
<rect width="22" height="12" transform="translate(891 6)" fill="#DFDFDF"/>
<path d="M896.141 15L898.133 10.272H896.141V11.296H895.245V9.416H899.173V10.328L897.245 15H896.141ZM902.002 15.096C901.639 15.096 901.324 15.032 901.058 14.904C900.791 14.7707 900.57 14.5813 900.394 14.336C900.223 14.0907 900.095 13.7893 900.01 13.432C899.93 13.0747 899.89 12.6667 899.89 12.208C899.89 11.7547 899.93 11.3493 900.01 10.992C900.095 10.6293 900.223 10.3253 900.394 10.08C900.57 9.83467 900.791 9.648 901.058 9.52C901.324 9.38667 901.639 9.32 902.002 9.32C902.727 9.32 903.26 9.57333 903.602 10.08C903.943 10.5867 904.114 11.296 904.114 12.208C904.114 13.12 903.943 13.8293 903.602 14.336C903.26 14.8427 902.727 15.096 902.002 15.096ZM902.002 14.256C902.386 14.256 902.655 14.12 902.81 13.848C902.97 13.5707 903.05 13.1893 903.05 12.704V11.712C903.05 11.2267 902.97 10.848 902.81 10.576C902.655 10.2987 902.386 10.16 902.002 10.16C901.618 10.16 901.346 10.2987 901.186 10.576C901.031 10.848 900.954 11.2267 900.954 11.712V12.704C900.954 13.1893 901.031 13.5707 901.186 13.848C901.346 14.12 901.618 14.256 902.002 14.256ZM902.002 12.68C901.815 12.68 901.684 12.6427 901.61 12.568C901.54 12.4933 901.506 12.4027 901.506 12.296V12.12C901.506 12.0133 901.54 11.9227 901.61 11.848C901.684 11.7733 901.815 11.736 902.002 11.736C902.188 11.736 902.316 11.7733 902.386 11.848C902.46 11.9227 902.498 12.0133 902.498 12.12V12.296C902.498 12.4027 902.46 12.4933 902.386 12.568C902.316 12.6427 902.188 12.68 902.002 12.68ZM906.798 15.096C906.436 15.096 906.121 15.032 905.854 14.904C905.588 14.7707 905.366 14.5813 905.19 14.336C905.02 14.0907 904.892 13.7893 904.806 13.432C904.726 13.0747 904.686 12.6667 904.686 12.208C904.686 11.7547 904.726 11.3493 904.806 10.992C904.892 10.6293 905.02 10.3253 905.19 10.08C905.366 9.83467 905.588 9.648 905.854 9.52C906.121 9.38667 906.436 9.32 906.798 9.32C907.524 9.32 908.057 9.57333 908.398 10.08C908.74 10.5867 908.91 11.296 908.91 12.208C908.91 13.12 908.74 13.8293 908.398 14.336C908.057 14.8427 907.524 15.096 906.798 15.096ZM906.798 14.256C907.182 14.256 907.452 14.12 907.606 13.848C907.766 13.5707 907.846 13.1893 907.846 12.704V11.712C907.846 11.2267 907.766 10.848 907.606 10.576C907.452 10.2987 907.182 10.16 906.798 10.16C906.414 10.16 906.142 10.2987 905.982 10.576C905.828 10.848 905.75 11.2267 905.75 11.712V12.704C905.75 13.1893 905.828 13.5707 905.982 13.848C906.142 14.12 906.414 14.256 906.798 14.256ZM906.798 12.68C906.612 12.68 906.481 12.6427 906.406 12.568C906.337 12.4933 906.302 12.4027 906.302 12.296V12.12C906.302 12.0133 906.337 11.9227 906.406 11.848C906.481 11.7733 906.612 11.736 906.798 11.736C906.985 11.736 907.113 11.7733 907.182 11.848C907.257 11.9227 907.294 12.0133 907.294 12.12V12.296C907.294 12.4027 907.257 12.4933 907.182 12.568C907.113 12.6427 906.985 12.68 906.798 12.68Z" fill="white"/>
<path d="M42.897 146.267C41.097 146.267 40.197 145.607 40.197 144.287C40.197 143.207 40.977 142.487 42.537 142.127L46.677 141.407C49.197 140.927 50.817 140.267 51.537 139.427C52.377 138.587 52.797 136.907 52.797 134.387V28.5468C52.797 26.0268 52.377 24.3468 51.537 23.5068C50.817 22.6668 49.197 22.0068 46.677 21.5268L42.537 20.8068C40.977 20.4468 40.197 19.7268 40.197 18.6468C40.197 17.3268 41.097 16.6668 42.897 16.6668H100.857C103.617 16.6668 105.117 18.0468 105.357 20.8068L106.797 50.6868C107.037 52.7268 106.257 53.7468 104.457 53.7468C103.017 53.7468 102.177 52.9668 101.937 51.4068L101.037 45.4668C100.077 39.2268 98.397 34.3668 95.997 30.8868C93.597 27.4068 90.897 24.9468 87.897 23.5068C84.897 21.9468 82.017 21.1668 79.257 21.1668C73.977 21.1668 70.377 22.0068 68.457 23.6868C66.537 25.3668 65.577 27.9468 65.577 31.4268V73.9068C65.577 75.5868 66.417 76.4268 68.097 76.4268H74.397C79.677 76.4268 82.917 73.6068 84.117 67.9668L86.097 58.9668C86.457 57.4068 87.357 56.6268 88.797 56.6268C90.237 56.6268 90.957 57.6468 90.957 59.6868V100.187C90.957 102.227 90.237 103.247 88.797 103.247C87.357 103.247 86.457 102.467 86.097 100.907L84.117 92.0868C83.277 87.8868 82.077 85.1268 80.517 83.8068C79.077 82.4868 76.977 81.8268 74.217 81.8268H68.097C66.417 81.8268 65.577 82.6668 65.577 84.3468V133.487C65.577 136.007 65.937 137.807 66.657 138.887C67.497 139.847 69.177 140.507 71.697 140.867L80.157 142.127C81.477 142.367 82.137 143.027 82.137 144.107C82.137 145.547 81.237 146.267 79.437 146.267H42.897Z" fill="black"/>
<path d="M124.973 65.9868C129.893 57.5868 135.833 53.3868 142.793 53.3868C146.753 53.3868 149.693 54.5868 151.613 56.9868C153.533 59.2668 154.493 61.8468 154.493 64.7268C154.493 67.0068 153.893 68.8668 152.693 70.3068C151.613 71.7468 149.873 72.4668 147.473 72.4668C145.553 72.4668 144.113 72.0468 143.153 71.2068C142.313 70.2468 141.593 69.1668 140.993 67.9668C140.513 66.7668 139.913 65.7468 139.193 64.9068C138.473 63.9468 137.273 63.4668 135.593 63.4668C133.433 63.4668 131.393 64.7868 129.473 67.4268C127.553 69.9468 125.933 73.3668 124.613 77.6868C123.413 82.0068 122.813 86.9268 122.813 92.4468V134.207C122.813 136.727 123.173 138.527 123.893 139.607C124.733 140.687 126.413 141.347 128.933 141.587L133.793 142.127C135.113 142.367 135.773 143.027 135.773 144.107C135.773 145.547 134.873 146.267 133.073 146.267H102.653C100.853 146.267 99.9528 145.607 99.9528 144.287C99.9528 143.207 100.733 142.487 102.293 142.127L104.453 141.767C106.973 141.287 108.593 140.567 109.313 139.607C110.153 138.527 110.573 136.727 110.573 134.207V73.7268C110.573 71.5668 110.213 70.1268 109.493 69.4068C108.893 68.5668 107.753 68.0268 106.073 67.7868L102.293 67.2468C100.733 67.1268 99.9528 66.4668 99.9528 65.2668C99.9528 64.3068 100.913 63.6468 102.833 63.2868C106.553 62.6868 109.373 61.7268 111.293 60.4068C113.333 59.0868 115.433 57.4668 117.593 55.5468C118.673 54.4668 119.573 53.9268 120.293 53.9268C121.373 53.9268 121.913 54.6468 121.913 56.0868V65.8068C121.913 66.6468 122.273 67.1868 122.993 67.4268C123.713 67.5468 124.373 67.0668 124.973 65.9868Z" fill="black"/>
<path d="M181.917 147.887C176.157 147.887 170.997 145.967 166.437 142.127C161.877 138.287 158.217 132.887 155.457 125.927C152.817 118.847 151.497 110.687 151.497 101.447C151.497 91.9668 152.877 83.6268 155.637 76.4268C158.397 69.2268 162.177 63.5868 166.977 59.5068C171.777 55.4268 177.117 53.3868 182.997 53.3868C190.077 53.3868 195.777 56.3268 200.097 62.2068C204.537 67.9668 206.757 77.3868 206.757 90.4668C206.757 94.4268 205.257 96.4068 202.257 96.4068H168.057C165.657 96.4068 164.457 97.7868 164.457 100.547C164.457 113.267 166.317 122.807 170.037 129.167C173.757 135.527 178.497 138.707 184.257 138.707C188.817 138.707 192.537 137.087 195.417 133.847C198.297 130.607 200.637 125.147 202.437 117.467C202.797 116.147 203.577 115.487 204.777 115.487C206.217 115.487 206.757 116.687 206.397 119.087C204.477 129.767 201.417 137.267 197.217 141.587C193.017 145.787 187.917 147.887 181.917 147.887ZM167.517 91.9068H185.697C191.457 91.9068 194.337 88.9068 194.337 82.9068C194.337 75.1068 193.377 68.9868 191.457 64.5468C189.537 60.1068 186.657 57.8868 182.817 57.8868C178.137 57.8868 174.177 60.5868 170.937 65.9868C167.817 71.3868 165.777 79.0668 164.817 89.0268C164.577 90.9468 165.477 91.9068 167.517 91.9068Z" fill="black"/>
<path d="M238.702 147.887C232.942 147.887 227.782 145.967 223.222 142.127C218.662 138.287 215.002 132.887 212.242 125.927C209.602 118.847 208.282 110.687 208.282 101.447C208.282 91.9668 209.662 83.6268 212.422 76.4268C215.182 69.2268 218.962 63.5868 223.762 59.5068C228.562 55.4268 233.902 53.3868 239.782 53.3868C246.862 53.3868 252.562 56.3268 256.882 62.2068C261.322 67.9668 263.542 77.3868 263.542 90.4668C263.542 94.4268 262.042 96.4068 259.042 96.4068H224.842C222.442 96.4068 221.242 97.7868 221.242 100.547C221.242 113.267 223.102 122.807 226.822 129.167C230.542 135.527 235.282 138.707 241.042 138.707C245.602 138.707 249.322 137.087 252.202 133.847C255.082 130.607 257.422 125.147 259.222 117.467C259.582 116.147 260.362 115.487 261.562 115.487C263.002 115.487 263.542 116.687 263.182 119.087C261.262 129.767 258.202 137.267 254.002 141.587C249.802 145.787 244.702 147.887 238.702 147.887ZM224.302 91.9068H242.482C248.242 91.9068 251.122 88.9068 251.122 82.9068C251.122 75.1068 250.162 68.9868 248.242 64.5468C246.322 60.1068 243.442 57.8868 239.602 57.8868C234.922 57.8868 230.962 60.5868 227.722 65.9868C224.602 71.3868 222.562 79.0668 221.602 89.0268C221.362 90.9468 222.262 91.9068 224.302 91.9068Z" fill="black"/>
<path d="M274.606 174.347C273.286 175.667 272.146 175.907 271.186 175.067C270.106 174.227 270.286 173.087 271.726 171.647C275.206 168.167 277.666 164.927 279.106 161.927C280.546 158.927 281.266 155.807 281.266 152.567C281.266 150.647 280.786 149.147 279.826 148.067C278.866 147.107 277.786 146.207 276.586 145.367C275.386 144.527 274.306 143.567 273.346 142.487C272.386 141.287 271.906 139.607 271.906 137.447C271.906 135.047 272.686 133.067 274.246 131.507C275.926 129.827 278.026 128.987 280.546 128.987C283.546 128.987 285.886 130.067 287.566 132.227C289.366 134.387 290.266 137.327 290.266 141.047C290.266 147.407 288.766 153.527 285.766 159.407C282.886 165.407 279.166 170.387 274.606 174.347Z" fill="black"/>
<path d="M353.216 147.887C348.296 147.887 343.556 146.327 338.996 143.207C336.356 141.407 333.956 141.887 331.796 144.647C330.596 145.967 329.696 146.807 329.096 147.167C328.496 147.647 327.896 147.887 327.296 147.887C325.976 147.887 325.496 147.047 325.856 145.367C326.336 142.607 326.696 139.067 326.936 134.747C327.176 130.427 327.296 124.667 327.296 117.467V31.0668C327.296 28.9068 326.936 27.4668 326.216 26.7468C325.616 25.9068 324.476 25.3668 322.796 25.1268L319.016 24.5868C317.696 24.3468 317.036 23.6268 317.036 22.4268C317.036 21.2268 317.696 20.5068 319.016 20.2668C322.376 19.5468 325.196 18.7068 327.476 17.7468C329.756 16.7868 331.676 15.8268 333.236 14.8668C335.156 13.6668 336.596 13.0668 337.556 13.0668C338.876 13.0668 339.536 14.0268 339.536 15.9468V60.4068C339.536 61.3668 339.896 62.0268 340.616 62.3868C341.456 62.6268 342.356 62.2668 343.316 61.3068C348.476 56.0268 354.116 53.3868 360.236 53.3868C365.756 53.3868 370.616 55.2468 374.816 58.9668C379.136 62.5668 382.496 67.6068 384.896 74.0868C387.416 80.5668 388.676 88.1868 388.676 96.9468C388.676 106.907 387.116 115.727 383.996 123.407C380.876 131.087 376.616 137.087 371.216 141.407C365.936 145.727 359.936 147.887 353.216 147.887ZM352.856 143.387C359.576 143.387 364.976 139.427 369.056 131.507C373.256 123.587 375.356 112.907 375.356 99.4668C375.356 87.1068 373.556 77.6868 369.956 71.2068C366.356 64.7268 361.256 61.4868 354.656 61.4868C350.576 61.4868 347.036 63.1668 344.036 66.5268C341.036 69.8868 339.536 74.5668 339.536 80.5668V125.927C339.536 131.327 340.736 135.587 343.136 138.707C345.656 141.827 348.896 143.387 352.856 143.387Z" fill="black"/>
<path d="M419.52 147.887C416.52 147.887 413.64 147.227 410.88 145.907C408.12 144.587 405.84 142.487 404.04 139.607C402.24 136.727 401.34 132.887 401.34 128.087V65.4468C401.34 63.2868 400.98 61.7868 400.26 60.9468C399.66 60.1068 398.52 59.6268 396.84 59.5068L393.78 59.1468C391.74 58.9068 390.72 58.1268 390.72 56.8068C390.72 55.2468 391.86 54.4668 394.14 54.4668H410.88C412.68 54.4668 413.58 55.3668 413.58 57.1668V124.307C413.58 129.827 414.6 133.787 416.64 136.187C418.8 138.467 421.74 139.607 425.46 139.607C429.18 139.607 432.48 138.587 435.36 136.547C438.24 134.387 440.52 131.567 442.2 128.087C444 124.487 444.9 120.587 444.9 116.387V65.4468C444.9 63.2868 444.54 61.7868 443.82 60.9468C443.22 60.1068 442.08 59.6268 440.4 59.5068L437.34 59.1468C435.3 58.9068 434.28 58.1268 434.28 56.8068C434.28 55.2468 435.42 54.4668 437.7 54.4668H454.44C456.24 54.4668 457.14 55.3668 457.14 57.1668V127.007C457.14 129.167 457.44 130.667 458.04 131.507C458.76 132.227 459.96 132.707 461.64 132.947L465.42 133.487C466.98 133.607 467.76 134.207 467.76 135.287C467.76 136.367 466.8 137.087 464.88 137.447C461.16 137.927 458.16 138.887 455.88 140.327C453.72 141.767 451.8 143.507 450.12 145.547C449.04 146.627 448.14 147.167 447.42 147.167C446.34 147.167 445.8 146.447 445.8 145.007V136.727C445.8 135.767 445.44 135.227 444.72 135.107C444.12 134.867 443.46 135.107 442.74 135.827C438.3 140.267 434.34 143.387 430.86 145.187C427.5 146.987 423.72 147.887 419.52 147.887Z" fill="black"/>
<path d="M489.739 147.887C485.539 147.887 482.059 146.447 479.299 143.567C476.659 140.567 475.339 135.707 475.339 128.987V61.6668C475.339 60.2268 474.619 59.5068 473.179 59.5068H467.959C466.039 59.5068 465.079 58.7868 465.079 57.3468C465.079 56.3868 465.619 55.5468 466.699 54.8268C470.659 52.0668 473.839 49.1268 476.239 46.0068C478.639 42.7668 480.739 38.3868 482.539 32.8668C483.379 30.3468 484.399 29.0868 485.599 29.0868C486.919 29.0868 487.579 30.0468 487.579 31.9668V51.9468C487.579 53.6268 488.419 54.4668 490.099 54.4668H501.799C503.719 54.4668 504.679 55.3068 504.679 56.9868C504.679 58.6668 503.719 59.5068 501.799 59.5068H490.099C488.419 59.5068 487.579 60.3468 487.579 62.0268V129.167C487.579 131.807 487.999 133.907 488.839 135.467C489.679 136.907 491.239 137.627 493.519 137.627C496.039 137.627 498.079 136.367 499.639 133.847C501.319 131.327 502.399 127.247 502.879 121.607C503.119 119.927 503.899 119.087 505.219 119.087C506.659 119.087 507.379 119.987 507.379 121.787C507.019 131.027 505.099 137.687 501.619 141.767C498.259 145.847 494.299 147.887 489.739 147.887Z" fill="black"/>
<path d="M522.087 146.267C520.407 146.267 519.567 145.667 519.567 144.467C519.567 143.147 520.767 142.307 523.167 141.947L526.767 141.407C529.407 141.047 531.207 140.447 532.167 139.607C533.127 138.647 533.907 136.907 534.507 134.387L558.987 28.5468C559.587 26.1468 559.587 24.5268 558.987 23.6868C558.387 22.7268 556.887 22.0068 554.487 21.5268L550.887 20.8068C549.327 20.4468 548.547 19.7868 548.547 18.8268C548.547 17.3868 549.627 16.6668 551.787 16.6668H586.167C594.207 16.6668 600.747 18.8868 605.787 23.3268C610.827 27.7668 613.347 33.5268 613.347 40.6068C613.347 47.3268 610.947 53.6868 606.147 59.6868C601.347 65.6868 594.927 70.0668 586.887 72.8268C586.287 72.9468 585.987 73.2468 585.987 73.7268C585.987 74.0868 586.287 74.3868 586.887 74.6268C593.127 76.9068 597.867 80.5668 601.107 85.6068C604.347 90.6468 605.967 96.5268 605.967 103.247C605.967 111.167 603.867 118.427 599.667 125.027C595.467 131.507 589.767 136.667 582.567 140.507C575.487 144.347 567.567 146.267 558.807 146.267H522.087ZM571.407 72.2868C576.687 72.2868 581.487 70.9068 585.807 68.1468C590.247 65.3868 593.787 61.6668 596.427 56.9868C599.067 52.1868 600.387 46.9668 600.387 41.3268C600.387 34.9668 598.767 30.0468 595.527 26.5668C592.407 22.9668 588.027 21.1668 582.387 21.1668C576.147 21.1668 572.487 23.5668 571.407 28.3668L563.667 62.3868C562.827 65.9868 563.007 68.5668 564.207 70.1268C565.407 71.5668 567.807 72.2868 571.407 72.2868ZM559.347 141.767C565.707 141.767 571.407 140.087 576.447 136.727C581.487 133.247 585.447 128.507 588.327 122.507C591.327 116.507 592.827 109.787 592.827 102.347C592.827 94.1868 590.907 87.8868 587.067 83.4468C583.347 79.0068 578.067 76.7868 571.227 76.7868C563.787 76.7868 559.407 79.9668 558.087 86.3268L548.187 129.347C546.267 137.627 549.987 141.767 559.347 141.767Z" fill="black"/>
<path d="M628.199 147.887C621.839 147.887 616.739 145.427 612.899 140.507C609.059 135.467 607.139 128.387 607.139 119.267C607.139 111.347 608.519 103.487 611.279 95.6868C614.159 87.8868 617.879 80.8068 622.439 74.4468C626.999 68.0868 631.979 62.9868 637.379 59.1468C642.899 55.3068 648.239 53.3868 653.399 53.3868C659.039 53.3868 663.059 54.7668 665.459 57.5268C667.979 60.1668 669.239 63.7668 669.239 68.3268C669.239 73.7268 667.319 79.1268 663.479 84.5268C659.759 89.8068 654.479 94.5468 647.639 98.7468C640.919 102.947 632.999 106.067 623.879 108.107C621.239 108.707 619.859 110.207 619.739 112.607C619.619 113.447 619.559 114.347 619.559 115.307C619.559 116.147 619.559 116.987 619.559 117.827C619.559 124.667 620.699 129.827 622.979 133.307C625.379 136.787 628.619 138.527 632.699 138.527C637.259 138.527 641.639 136.427 645.839 132.227C650.159 128.027 653.759 122.087 656.639 114.407C656.999 113.327 657.719 112.787 658.799 112.787C659.519 112.787 659.939 113.087 660.059 113.687C660.299 114.287 660.299 115.007 660.059 115.847C656.219 126.407 651.539 134.387 646.019 139.787C640.619 145.187 634.679 147.887 628.199 147.887ZM621.539 101.267C621.299 102.107 621.419 102.827 621.899 103.427C622.499 103.907 623.219 104.027 624.059 103.787C631.499 101.747 637.739 98.6868 642.779 94.6068C647.819 90.4068 651.599 85.7268 654.119 80.5668C656.759 75.4068 658.079 70.3668 658.079 65.4468C658.079 60.4068 656.099 57.8868 652.139 57.8868C648.659 57.8868 644.879 59.9268 640.799 64.0068C636.719 68.0868 632.939 73.4268 629.459 80.0268C625.979 86.6268 623.339 93.7068 621.539 101.267Z" fill="black"/>
<path d="M678.717 147.887C674.637 147.887 671.458 146.267 669.178 143.027C666.898 139.787 666.537 134.567 668.097 127.367L683.038 62.2068C683.398 60.4068 682.677 59.5068 680.877 59.5068H674.038C672.358 59.5068 671.517 58.7268 671.517 57.1668C671.517 56.3268 671.817 55.6668 672.417 55.1868C673.017 54.7068 673.738 54.4668 674.578 54.4668H681.057C683.817 54.4668 685.437 53.2068 685.917 50.6868L690.238 31.4268C690.598 30.1068 691.438 29.4468 692.758 29.4468H700.138C701.818 29.4468 702.477 30.2268 702.117 31.7868L697.618 51.7668C697.258 53.5668 697.977 54.4668 699.777 54.4668H710.037C712.077 54.4668 713.097 55.2468 713.097 56.8068C713.097 58.6068 711.838 59.5068 709.318 59.5068H699.598C696.958 59.5068 695.338 60.7668 694.738 63.2868L679.617 129.167C679.017 131.807 679.078 133.907 679.798 135.467C680.638 136.907 682.017 137.627 683.937 137.627C686.697 137.627 689.218 136.067 691.498 132.947C693.898 129.827 696.417 123.887 699.057 115.127C699.537 113.567 700.318 112.787 701.398 112.787C702.238 112.787 702.778 113.147 703.018 113.867C703.258 114.587 703.078 115.907 702.478 117.827C700.198 125.987 697.677 132.227 694.917 136.547C692.277 140.867 689.578 143.867 686.818 145.547C684.058 147.107 681.357 147.887 678.717 147.887Z" fill="black"/>
<path d="M720.56 147.887C716.48 147.887 713.3 146.267 711.02 143.027C708.74 139.787 708.38 134.567 709.94 127.367L724.88 62.2068C725.24 60.4068 724.52 59.5068 722.72 59.5068H715.88C714.2 59.5068 713.36 58.7268 713.36 57.1668C713.36 56.3268 713.66 55.6668 714.26 55.1868C714.86 54.7068 715.58 54.4668 716.42 54.4668H722.9C725.66 54.4668 727.28 53.2068 727.76 50.6868L732.08 31.4268C732.44 30.1068 733.28 29.4468 734.6 29.4468H741.98C743.66 29.4468 744.32 30.2268 743.96 31.7868L739.46 51.7668C739.1 53.5668 739.82 54.4668 741.62 54.4668H751.88C753.92 54.4668 754.94 55.2468 754.94 56.8068C754.94 58.6068 753.68 59.5068 751.16 59.5068H741.44C738.8 59.5068 737.18 60.7668 736.58 63.2868L721.46 129.167C720.86 131.807 720.92 133.907 721.64 135.467C722.48 136.907 723.86 137.627 725.78 137.627C728.54 137.627 731.06 136.067 733.34 132.947C735.74 129.827 738.26 123.887 740.9 115.127C741.38 113.567 742.16 112.787 743.24 112.787C744.08 112.787 744.62 113.147 744.86 113.867C745.1 114.587 744.92 115.907 744.32 117.827C742.04 125.987 739.52 132.227 736.76 136.547C734.12 140.867 731.42 143.867 728.66 145.547C725.9 147.107 723.2 147.887 720.56 147.887Z" fill="black"/>
<path d="M766.209 147.887C759.849 147.887 754.749 145.427 750.909 140.507C747.069 135.467 745.149 128.387 745.149 119.267C745.149 111.347 746.529 103.487 749.289 95.6868C752.169 87.8868 755.889 80.8068 760.449 74.4468C765.009 68.0868 769.989 62.9868 775.389 59.1468C780.909 55.3068 786.249 53.3868 791.409 53.3868C797.049 53.3868 801.069 54.7668 803.469 57.5268C805.989 60.1668 807.249 63.7668 807.249 68.3268C807.249 73.7268 805.329 79.1268 801.489 84.5268C797.769 89.8068 792.489 94.5468 785.649 98.7468C778.929 102.947 771.009 106.067 761.889 108.107C759.249 108.707 757.869 110.207 757.749 112.607C757.629 113.447 757.569 114.347 757.569 115.307C757.569 116.147 757.569 116.987 757.569 117.827C757.569 124.667 758.709 129.827 760.989 133.307C763.389 136.787 766.629 138.527 770.709 138.527C775.269 138.527 779.649 136.427 783.849 132.227C788.169 128.027 791.769 122.087 794.649 114.407C795.009 113.327 795.729 112.787 796.809 112.787C797.529 112.787 797.949 113.087 798.069 113.687C798.309 114.287 798.309 115.007 798.069 115.847C794.229 126.407 789.549 134.387 784.029 139.787C778.629 145.187 772.689 147.887 766.209 147.887ZM759.549 101.267C759.309 102.107 759.429 102.827 759.909 103.427C760.509 103.907 761.229 104.027 762.069 103.787C769.509 101.747 775.749 98.6868 780.789 94.6068C785.829 90.4068 789.609 85.7268 792.129 80.5668C794.769 75.4068 796.089 70.3668 796.089 65.4468C796.089 60.4068 794.109 57.8868 790.149 57.8868C786.669 57.8868 782.889 59.9268 778.809 64.0068C774.729 68.0868 770.949 73.4268 767.469 80.0268C763.989 86.6268 761.349 93.7068 759.549 101.267Z" fill="black"/>
<path d="M809.887 146.267C808.207 146.267 807.547 145.487 807.907 143.927L825.007 72.1068C825.607 69.4668 825.667 67.4268 825.187 65.9868C824.827 64.4268 823.747 63.6468 821.947 63.6468C819.787 63.6468 817.387 65.2668 814.747 68.5068C812.227 71.6268 809.347 77.6268 806.107 86.5068C805.627 88.0668 804.787 88.8468 803.587 88.8468C801.787 88.8468 801.307 87.7668 802.147 85.6068C804.787 77.3268 807.547 70.8468 810.427 66.1668C813.427 61.4868 816.427 58.1868 819.427 56.2668C822.427 54.3468 825.187 53.3868 827.707 53.3868C831.667 53.3868 834.487 54.8868 836.167 57.8868C837.847 60.7668 837.907 65.5668 836.347 72.2868L834.367 80.7468C834.247 81.5868 834.427 82.0668 834.907 82.1868C835.387 82.3068 835.807 82.0068 836.167 81.2868C840.727 70.8468 844.867 63.5868 848.587 59.5068C852.307 55.4268 856.567 53.3868 861.367 53.3868C864.607 53.3868 867.007 54.2868 868.567 56.0868C870.247 57.7668 871.087 60.1068 871.087 63.1068C871.087 66.1068 870.367 68.5068 868.927 70.3068C867.487 72.1068 865.627 73.0068 863.347 73.0068C861.427 73.0068 860.047 72.5268 859.207 71.5668C858.367 70.6068 857.707 69.5268 857.227 68.3268C856.867 67.0068 856.447 65.8668 855.967 64.9068C855.487 63.9468 854.707 63.4668 853.627 63.4668C851.827 63.4668 849.487 65.7468 846.607 70.3068C843.727 74.8668 840.607 81.0468 837.247 88.8468C834.007 96.5268 830.827 105.167 827.707 114.767C824.707 124.367 822.067 134.207 819.787 144.287C819.427 145.607 818.587 146.267 817.267 146.267H809.887Z" fill="black"/>
<path d="M859.983 147.887C857.463 147.887 855.423 147.107 853.863 145.547C852.303 143.867 851.523 141.827 851.523 139.427C851.523 136.307 852.603 133.787 854.763 131.867C856.923 129.947 859.203 128.987 861.603 128.987C864.003 128.987 865.983 129.827 867.543 131.507C869.223 133.067 870.063 135.047 870.063 137.447C870.063 140.567 868.983 143.087 866.823 145.007C864.663 146.927 862.383 147.887 859.983 147.887Z" fill="black"/>
<g opacity="0.9">
<path d="M515 0.113249L512.113 3L515 5.88675L517.887 3L515 0.113249ZM514.5 165C514.5 165.276 514.724 165.5 515 165.5C515.276 165.5 515.5 165.276 515.5 165L514.5 165ZM514.5 3L514.5 4.26563L515.5 4.26562L515.5 3L514.5 3ZM514.5 6.79687L514.5 9.32812L515.5 9.32812L515.5 6.79687L514.5 6.79687ZM514.5 11.8594L514.5 14.3906L515.5 14.3906L515.5 11.8594L514.5 11.8594ZM514.5 16.9219L514.5 19.4531L515.5 19.4531L515.5 16.9219L514.5 16.9219ZM514.5 21.9844L514.5 24.5156L515.5 24.5156L515.5 21.9844L514.5 21.9844ZM514.5 27.0469L514.5 29.5781L515.5 29.5781L515.5 27.0469L514.5 27.0469ZM514.5 32.1094L514.5 34.6406L515.5 34.6406L515.5 32.1094L514.5 32.1094ZM514.5 37.1719L514.5 39.7031L515.5 39.7031L515.5 37.1719L514.5 37.1719ZM514.5 42.2344L514.5 44.7656L515.5 44.7656L515.5 42.2344L514.5 42.2344ZM514.5 47.2969L514.5 49.8281L515.5 49.8281L515.5 47.2969L514.5 47.2969ZM514.5 52.3594L514.5 54.8906L515.5 54.8906L515.5 52.3594L514.5 52.3594ZM514.5 57.4219L514.5 59.9531L515.5 59.9531L515.5 57.4219L514.5 57.4219ZM514.5 62.4844L514.5 65.0156L515.5 65.0156L515.5 62.4844L514.5 62.4844ZM514.5 67.5469L514.5 70.0781L515.5 70.0781L515.5 67.5469L514.5 67.5469ZM514.5 72.6094L514.5 75.1406L515.5 75.1406L515.5 72.6094L514.5 72.6094ZM514.5 77.6719L514.5 80.2031L515.5 80.2031L515.5 77.6719L514.5 77.6719ZM514.5 82.7344L514.5 85.2656L515.5 85.2656L515.5 82.7344L514.5 82.7344ZM514.5 87.7969L514.5 90.3281L515.5 90.3281L515.5 87.7969L514.5 87.7969ZM514.5 92.8594L514.5 95.3906L515.5 95.3906L515.5 92.8594L514.5 92.8594ZM514.5 97.9219L514.5 100.453L515.5 100.453L515.5 97.9219L514.5 97.9219ZM514.5 102.984L514.5 105.516L515.5 105.516L515.5 102.984L514.5 102.984ZM514.5 108.047L514.5 110.578L515.5 110.578L515.5 108.047L514.5 108.047ZM514.5 113.109L514.5 115.641L515.5 115.641L515.5 113.109L514.5 113.109ZM514.5 118.172L514.5 120.703L515.5 120.703L515.5 118.172L514.5 118.172ZM514.5 123.234L514.5 125.766L515.5 125.766L515.5 123.234L514.5 123.234ZM514.5 128.297L514.5 130.828L515.5 130.828L515.5 128.297L514.5 128.297ZM514.5 133.359L514.5 135.891L515.5 135.891L515.5 133.359L514.5 133.359ZM514.5 138.422L514.5 140.953L515.5 140.953L515.5 138.422L514.5 138.422ZM514.5 143.484L514.5 146.016L515.5 146.016L515.5 143.484L514.5 143.484ZM514.5 148.547L514.5 151.078L515.5 151.078L515.5 148.547L514.5 148.547ZM514.5 153.609L514.5 156.141L515.5 156.141L515.5 153.609L514.5 153.609ZM514.5 158.672L514.5 161.203L515.5 161.203L515.5 158.672L514.5 158.672ZM514.5 163.734L514.5 165L515.5 165L515.5 163.734L514.5 163.734Z" fill="#FF3002"/>
<path d="M501.195 7.92625L501.195 6.68875L508.125 9.50125C508.5 9.65125 508.781 9.85 508.969 10.0975C509.156 10.3375 509.25 10.6862 509.25 11.1437L509.25 12.1225L508.26 12.1225L508.26 10.75L506.921 10.2212L501.195 12.5612L501.195 11.2787L503.625 10.3562L505.616 9.63625L505.616 9.56875L503.625 8.84875L501.195 7.92625Z" fill="#FF3002"/>
</g>
<rect width="31" height="8" transform="translate(71 165)" fill="#F7F7F7"/>
<rect width="31" height="8" transform="translate(133 165)" fill="#F7F7F7"/>
<rect width="31" height="8" transform="translate(40 173)" fill="#F7F7F7"/>
<rect width="31" height="8" transform="translate(102 173)" fill="#F7F7F7"/>
<rect width="31" height="8" transform="translate(164 173)" fill="#F7F7F7"/>
<path d="M0 164.5L40 164.5M195 205L195 164.5L164 164.5M40 164.5L40 205M40 164.5L71 164.5M71 164.5L71 205M71 164.5L102 164.5M102 164.5L102 205M102 164.5L133 164.5M133 164.5L133 205M133 164.5L164 164.5M164 164.5L164 205" stroke="#E0E0E0" stroke-width="0.8"/>
<path d="M21.7404 170L21.7404 195M34 182.74L9 182.74M34 182.5C34 189.404 28.4036 195 21.5 195C14.5964 195 9 189.404 9 182.5C9 175.596 14.5964 170 21.5 170C28.4036 170 34 175.596 34 182.5Z" stroke="#E0E0E0" stroke-width="0.8"/>
</svg>
