<svg width="410" height="76" viewBox="0 0 410 76" fill="none" xmlns="http://www.w3.org/2000/svg">
<path d="M1.32931 65.5794C0.443104 65.5794 0 65.2545 0 64.6046C0 64.0729 0.384024 63.7184 1.15207 63.5411L3.19035 63.1867C4.43104 62.9503 5.22863 62.6254 5.58311 62.2118C5.99668 61.7983 6.20346 60.9711 6.20346 59.7304V7.62139C6.20346 6.3807 5.99668 5.55357 5.58311 5.14001C5.22863 4.72644 4.43104 4.4015 3.19035 4.16518L1.15207 3.81069C0.384024 3.63345 0 3.27897 0 2.74724C0 2.09736 0.443104 1.77242 1.32931 1.77242H29.8652C31.2241 1.77242 31.9626 2.45184 32.0807 3.81069L32.7897 18.5218C32.9079 19.5261 32.5238 20.0283 31.6376 20.0283C30.9287 20.0283 30.5151 19.6443 30.3969 18.8762L29.9538 15.9518C29.4812 12.8796 28.6541 10.4868 27.4725 8.77346C26.2908 7.06013 24.9615 5.84897 23.4845 5.14001C22.0075 4.37196 20.5896 3.98793 19.2307 3.98793C16.6312 3.98793 14.8588 4.4015 13.9135 5.22863C12.9682 6.05575 12.4955 7.32599 12.4955 9.03933V29.9538C12.4955 30.781 12.9091 31.1945 13.7362 31.1945H16.838C19.4375 31.1945 21.0327 29.8061 21.6235 27.0294L22.5983 22.5983C22.7756 21.8303 23.2187 21.4462 23.9276 21.4462C24.6366 21.4462 24.9911 21.9484 24.9911 22.9528V42.8925C24.9911 43.8969 24.6366 44.399 23.9276 44.399C23.2187 44.399 22.7756 44.015 22.5983 43.247L21.6235 38.9045C21.2099 36.8367 20.6191 35.4779 19.8511 34.828C19.1421 34.1781 18.1082 33.8532 16.7493 33.8532H13.7362C12.9091 33.8532 12.4955 34.2667 12.4955 35.0938V59.2873C12.4955 60.528 12.6728 61.4142 13.0273 61.946C13.4408 62.4186 14.268 62.7436 15.5086 62.9208L19.6738 63.5411C20.3237 63.6593 20.6487 63.9842 20.6487 64.516C20.6487 65.2249 20.2055 65.5794 19.3193 65.5794H1.32931Z" fill="black"/>
<path d="M41.7383 26.0545C44.1606 21.9189 47.0851 19.8511 50.5118 19.8511C52.4615 19.8511 53.9089 20.4419 54.8542 21.6235C55.7995 22.746 56.2721 24.0162 56.2721 25.4342C56.2721 26.5567 55.9767 27.4725 55.3859 28.1814C54.8542 28.8904 53.9975 29.2449 52.8159 29.2449C51.8706 29.2449 51.1617 29.0381 50.689 28.6245C50.2755 28.1519 49.921 27.6202 49.6256 27.0294C49.3893 26.4385 49.0939 25.9364 48.7394 25.5228C48.3849 25.0502 47.7941 24.8138 46.967 24.8138C45.9035 24.8138 44.8991 25.4637 43.9539 26.7635C43.0086 28.0042 42.211 29.688 41.5611 31.8149C40.9703 33.9418 40.6749 36.3641 40.6749 39.0818V59.6418C40.6749 60.8825 40.8521 61.7687 41.2066 62.3004C41.6202 62.8322 42.4473 63.1571 43.688 63.2753L46.0808 63.5411C46.7306 63.6593 47.0556 63.9842 47.0556 64.516C47.0556 65.2249 46.6125 65.5794 45.7263 65.5794H30.7493C29.8631 65.5794 29.42 65.2545 29.42 64.6046C29.42 64.0729 29.8041 63.7184 30.5721 63.5411L31.6356 63.3639C32.8763 63.1276 33.6738 62.7731 34.0283 62.3004C34.4419 61.7687 34.6487 60.8825 34.6487 59.6418V29.8652C34.6487 28.8018 34.4714 28.0928 34.1169 27.7383C33.8215 27.3248 33.2603 27.0589 32.4331 26.9407L30.5721 26.6749C29.8041 26.6158 29.42 26.2908 29.42 25.7C29.42 25.2274 29.8927 24.9025 30.838 24.7252C32.6695 24.4298 34.0579 23.9572 35.0031 23.3073C36.0075 22.6574 37.0414 21.8598 38.1049 20.9145C38.6366 20.3828 39.0797 20.1169 39.4342 20.1169C39.9659 20.1169 40.2318 20.4714 40.2318 21.1804V25.9659C40.2318 26.3795 40.409 26.6453 40.7635 26.7635C41.118 26.8226 41.4429 26.5863 41.7383 26.0545Z" fill="black"/>
<path d="M69.7744 66.377C66.9385 66.377 64.398 65.4317 62.153 63.5411C59.9079 61.6506 58.106 58.9919 56.7471 55.5653C55.4473 52.0795 54.7974 48.062 54.7974 43.5128C54.7974 38.8455 55.4769 34.7394 56.8357 31.1945C58.1946 27.6497 60.0556 24.8729 62.4188 22.8642C64.7821 20.8554 67.4111 19.8511 70.3061 19.8511C73.7918 19.8511 76.5982 21.2985 78.7251 24.1935C80.911 27.0294 82.004 31.6672 82.004 38.107C82.004 40.0566 81.2655 41.0314 79.7885 41.0314H62.9506C61.7689 41.0314 61.1781 41.7109 61.1781 43.0697C61.1781 49.3323 62.0939 54.0292 63.9254 57.1604C65.7569 60.2917 68.0906 61.8573 70.9264 61.8573C73.1715 61.8573 75.003 61.0598 76.4209 59.4646C77.8389 57.8694 78.9909 55.1812 79.8771 51.4001C80.0544 50.7502 80.4384 50.4253 81.0292 50.4253C81.7382 50.4253 82.004 51.0161 81.8268 52.1977C80.8815 57.4558 79.3749 61.1484 77.3071 63.2753C75.2393 65.3431 72.7284 66.377 69.7744 66.377ZM62.6847 38.8159H71.6354C74.4713 38.8159 75.8892 37.3389 75.8892 34.3849C75.8892 30.5446 75.4166 27.5315 74.4713 25.3456C73.526 23.1596 72.108 22.0666 70.2175 22.0666C67.9133 22.0666 65.9637 23.3959 64.3685 26.0545C62.8324 28.7131 61.828 32.4943 61.3554 37.398C61.2372 38.3433 61.6803 38.8159 62.6847 38.8159Z" fill="black"/>
<path d="M97.7315 66.377C94.8956 66.377 92.3551 65.4317 90.1101 63.5411C87.865 61.6506 86.0631 58.9919 84.7042 55.5653C83.4044 52.0795 82.7545 48.062 82.7545 43.5128C82.7545 38.8455 83.434 34.7394 84.7928 31.1945C86.1517 27.6497 88.0127 24.8729 90.3759 22.8642C92.7392 20.8554 95.3682 19.8511 98.2632 19.8511C101.749 19.8511 104.555 21.2985 106.682 24.1935C108.868 27.0294 109.961 31.6672 109.961 38.107C109.961 40.0566 109.223 41.0314 107.746 41.0314H90.9077C89.7261 41.0314 89.1352 41.7109 89.1352 43.0697C89.1352 49.3323 90.051 54.0292 91.8825 57.1604C93.714 60.2917 96.0477 61.8573 98.8835 61.8573C101.129 61.8573 102.96 61.0598 104.378 59.4646C105.796 57.8694 106.948 55.1812 107.834 51.4001C108.011 50.7502 108.396 50.4253 108.986 50.4253C109.695 50.4253 109.961 51.0161 109.784 52.1977C108.839 57.4558 107.332 61.1484 105.264 63.2753C103.196 65.3431 100.685 66.377 97.7315 66.377ZM90.6418 38.8159H99.5925C102.428 38.8159 103.846 37.3389 103.846 34.3849C103.846 30.5446 103.374 27.5315 102.428 25.3456C101.483 23.1596 100.065 22.0666 98.1746 22.0666C95.8704 22.0666 93.9208 23.3959 92.3256 26.0545C90.7895 28.7131 89.7851 32.4943 89.3125 37.398C89.1943 38.3433 89.6374 38.8159 90.6418 38.8159Z" fill="black"/>
<path d="M115.409 75.4043C114.759 76.0542 114.197 76.1723 113.725 75.7588C113.193 75.3452 113.282 74.7839 113.991 74.075C115.704 72.3616 116.915 70.7665 117.624 69.2894C118.333 67.8124 118.688 66.2763 118.688 64.6812C118.688 63.7359 118.451 62.9974 117.979 62.4656C117.506 61.993 116.974 61.5499 116.383 61.1363C115.793 60.7228 115.261 60.2501 114.788 59.7184C114.316 59.1276 114.079 58.3004 114.079 57.237C114.079 56.0554 114.463 55.0806 115.231 54.3125C116.058 53.4854 117.092 53.0718 118.333 53.0718C119.81 53.0718 120.962 53.6035 121.789 54.667C122.675 55.7304 123.119 57.1779 123.119 59.0094C123.119 62.1407 122.38 65.1538 120.903 68.0487C119.485 71.0028 117.654 73.4546 115.409 75.4043Z" fill="black"/>
<path d="M154.111 66.377C151.689 66.377 149.355 65.609 147.11 64.0729C145.81 63.1867 144.629 63.423 143.565 64.7818C142.974 65.4317 142.531 65.8453 142.236 66.0225C141.94 66.2588 141.645 66.377 141.35 66.377C140.7 66.377 140.463 65.9634 140.641 65.1363C140.877 63.7775 141.054 62.0346 141.172 59.9077C141.29 57.7808 141.35 54.9449 141.35 51.4001V8.86208C141.35 7.79863 141.172 7.08966 140.818 6.73518C140.522 6.32162 139.961 6.05576 139.134 5.93759L137.273 5.67173C136.623 5.55357 136.298 5.19909 136.298 4.60828C136.298 4.01748 136.623 3.66299 137.273 3.54483C138.927 3.19035 140.316 2.77678 141.438 2.30414C142.561 1.83149 143.506 1.35885 144.274 0.886208C145.219 0.295402 145.928 0 146.401 0C147.051 0 147.376 0.472644 147.376 1.41793V23.3073C147.376 23.7799 147.553 24.1049 147.907 24.2821C148.321 24.4003 148.764 24.223 149.237 23.7504C151.777 21.1508 154.554 19.8511 157.567 19.8511C160.285 19.8511 162.678 20.7668 164.745 22.5983C166.872 24.3707 168.527 26.8521 169.708 30.0425C170.949 33.2328 171.569 36.9844 171.569 41.2973C171.569 46.201 170.801 50.5434 169.265 54.3246C167.729 58.1057 165.632 61.0598 162.973 63.1867C160.373 65.3136 157.419 66.377 154.111 66.377ZM153.934 64.1615C157.242 64.1615 159.901 62.2118 161.91 58.3125C163.977 54.4132 165.011 49.155 165.011 42.538C165.011 36.4527 164.125 31.8149 162.353 28.6245C160.58 25.4342 158.069 23.839 154.82 23.839C152.811 23.839 151.068 24.6661 149.591 26.3204C148.114 27.9746 147.376 30.2788 147.376 33.2328V55.5653C147.376 58.2239 147.967 60.3213 149.148 61.8573C150.389 63.3934 151.984 64.1615 153.934 64.1615Z" fill="black"/>
<path d="M186.755 66.377C185.278 66.377 183.86 66.0521 182.501 65.4022C181.143 64.7523 180.02 63.7184 179.134 62.3004C178.248 60.8825 177.805 58.9919 177.805 56.6287V25.7887C177.805 24.7252 177.627 23.9867 177.273 23.5731C176.977 23.1596 176.416 22.9233 175.589 22.8642L174.082 22.6869C173.078 22.5688 172.576 22.1847 172.576 21.5349C172.576 20.7668 173.137 20.3828 174.26 20.3828H182.501C183.388 20.3828 183.831 20.8259 183.831 21.7121V54.7677C183.831 57.4854 184.333 59.435 185.337 60.6167C186.401 61.7392 187.848 62.3004 189.68 62.3004C191.511 62.3004 193.136 61.7983 194.554 60.7939C195.972 59.7304 197.094 58.3421 197.921 56.6287C198.808 54.8563 199.251 52.9362 199.251 50.8684V25.7887C199.251 24.7252 199.074 23.9867 198.719 23.5731C198.424 23.1596 197.862 22.9233 197.035 22.8642L195.529 22.6869C194.524 22.5688 194.022 22.1847 194.022 21.5349C194.022 20.7668 194.583 20.3828 195.706 20.3828H203.948C204.834 20.3828 205.277 20.8259 205.277 21.7121V56.097C205.277 57.1604 205.425 57.8989 205.72 58.3125C206.075 58.667 206.665 58.9033 207.493 59.0215L209.354 59.2873C210.122 59.3464 210.506 59.6418 210.506 60.1735C210.506 60.7053 210.033 61.0598 209.088 61.237C207.256 61.4733 205.779 61.946 204.657 62.6549C203.593 63.3639 202.648 64.2206 201.821 65.2249C201.289 65.7567 200.846 66.0225 200.491 66.0225C199.96 66.0225 199.694 65.668 199.694 64.9591V60.8825C199.694 60.4099 199.517 60.144 199.162 60.0849C198.867 59.9668 198.542 60.0849 198.187 60.4394C196.001 62.6254 194.052 64.1615 192.338 65.0477C190.684 65.9339 188.823 66.377 186.755 66.377Z" fill="black"/>
<path d="M221.326 66.377C219.259 66.377 217.545 65.668 216.186 64.2501C214.887 62.7731 214.237 60.3803 214.237 57.0718V23.9276C214.237 23.2187 213.882 22.8642 213.173 22.8642H210.603C209.658 22.8642 209.185 22.5097 209.185 21.8007C209.185 21.3281 209.451 20.9145 209.983 20.56C211.933 19.2012 213.498 17.7537 214.68 16.2176C215.861 14.6224 216.895 12.466 217.782 9.74829C218.195 8.5076 218.697 7.88725 219.288 7.88725C219.938 7.88725 220.263 8.3599 220.263 9.30518V19.1421C220.263 19.9692 220.676 20.3828 221.504 20.3828H227.264C228.209 20.3828 228.682 20.7964 228.682 21.6235C228.682 22.4506 228.209 22.8642 227.264 22.8642H221.504C220.676 22.8642 220.263 23.2777 220.263 24.1049V57.1604C220.263 58.4602 220.47 59.4941 220.883 60.2622C221.297 60.9711 222.065 61.3256 223.187 61.3256C224.428 61.3256 225.432 60.7053 226.201 59.4646C227.028 58.2239 227.559 56.2152 227.796 53.4384C227.914 52.6112 228.298 52.1977 228.948 52.1977C229.657 52.1977 230.011 52.6408 230.011 53.527C229.834 58.0762 228.889 61.3552 227.175 63.3639C225.521 65.3726 223.571 66.377 221.326 66.377Z" fill="black"/>
<path d="M237.253 65.5794C236.425 65.5794 236.012 65.284 236.012 64.6932C236.012 64.0433 236.603 63.6298 237.784 63.4525L239.557 63.1867C240.856 63.0094 241.743 62.714 242.215 62.3005C242.688 61.8278 243.072 60.9711 243.367 59.7304L255.42 7.6214C255.715 6.43979 255.715 5.64221 255.42 5.22864C255.124 4.756 254.386 4.40152 253.204 4.16519L251.432 3.81071C250.664 3.63347 250.28 3.30852 250.28 2.83588C250.28 2.12691 250.812 1.77243 251.875 1.77243H268.802C272.76 1.77243 275.98 2.86542 278.461 5.0514C280.943 7.23738 282.183 10.0732 282.183 13.559C282.183 16.8675 281.002 19.9988 278.638 22.9528C276.275 25.9068 273.114 28.0633 269.156 29.4221C268.861 29.4812 268.713 29.6289 268.713 29.8652C268.713 30.0425 268.861 30.1902 269.156 30.3083C272.228 31.4309 274.562 33.2328 276.157 35.7142C277.752 38.1956 278.55 41.0905 278.55 44.399C278.55 48.2984 277.516 51.8727 275.448 55.1222C273.38 58.3125 270.574 60.853 267.029 62.7436C263.543 64.6341 259.644 65.5794 255.331 65.5794H237.253ZM261.535 29.1563C264.134 29.1563 266.497 28.4768 268.624 27.118C270.81 25.7591 272.553 23.9276 273.853 21.6235C275.153 19.2603 275.803 16.6903 275.803 13.9135C275.803 10.7822 275.005 8.35991 273.41 6.64658C271.874 4.87416 269.717 3.98795 266.941 3.98795C263.868 3.98795 262.066 5.16956 261.535 7.53278L257.724 24.2821C257.31 26.0545 257.399 27.3248 257.99 28.0928C258.581 28.8018 259.762 29.1563 261.535 29.1563ZM255.597 63.3639C258.728 63.3639 261.535 62.5368 264.016 60.8825C266.497 59.1692 268.447 56.8355 269.865 53.8815C271.342 50.9274 272.081 47.6189 272.081 43.9559C272.081 39.9385 271.135 36.8367 269.245 34.6508C267.413 32.4648 264.814 31.3718 261.446 31.3718C257.783 31.3718 255.627 32.9374 254.977 36.0687L250.103 57.2491C249.157 61.3256 250.989 63.3639 255.597 63.3639Z" fill="black"/>
<path d="M289.496 66.377C286.365 66.377 283.854 65.1659 281.963 62.7436C280.073 60.2622 279.127 56.7764 279.127 52.2863C279.127 48.387 279.807 44.5172 281.166 40.677C282.583 36.8367 284.415 33.351 286.66 30.2197C288.905 27.0884 291.357 24.5775 294.016 22.6869C296.733 20.7964 299.362 19.8511 301.903 19.8511C304.68 19.8511 306.659 20.5305 307.84 21.8894C309.081 23.1891 309.701 24.9615 309.701 27.2066C309.701 29.8652 308.756 32.5239 306.866 35.1825C305.034 37.782 302.435 40.1157 299.067 42.1835C295.758 44.2513 291.859 45.7874 287.369 46.7918C286.069 47.0872 285.39 47.8257 285.331 49.0073C285.272 49.4209 285.242 49.864 285.242 50.3366C285.242 50.7502 285.242 51.1638 285.242 51.5773C285.242 54.9449 285.803 57.4854 286.926 59.1987C288.108 60.9121 289.703 61.7687 291.711 61.7687C293.956 61.7687 296.113 60.7348 298.181 58.667C300.308 56.5992 302.08 53.6747 303.498 49.8935C303.675 49.3618 304.03 49.096 304.561 49.096C304.916 49.096 305.123 49.2437 305.182 49.5391C305.3 49.8345 305.3 50.1889 305.182 50.6025C303.291 55.8016 300.987 59.7304 298.269 62.3891C295.611 65.0477 292.686 66.377 289.496 66.377ZM286.217 43.4242C286.099 43.8378 286.158 44.1923 286.394 44.4877C286.69 44.724 287.044 44.7831 287.458 44.6649C291.121 43.6605 294.193 42.154 296.674 40.1452C299.156 38.0774 301.017 35.7733 302.257 33.2328C303.557 30.6924 304.207 28.211 304.207 25.7887C304.207 23.3073 303.232 22.0666 301.282 22.0666C299.569 22.0666 297.708 23.071 295.699 25.0797C293.691 27.0884 291.83 29.7175 290.116 32.967C288.403 36.2164 287.103 39.7021 286.217 43.4242Z" fill="black"/>
<path d="M314.368 66.377C312.359 66.377 310.794 65.5794 309.671 63.9842C308.548 62.3891 308.371 59.8191 309.139 56.2742L316.495 24.1935C316.672 23.3073 316.318 22.8642 315.431 22.8642H312.064C311.237 22.8642 310.823 22.4802 310.823 21.7121C310.823 21.2986 310.971 20.9736 311.266 20.7373C311.562 20.501 311.916 20.3828 312.33 20.3828H315.52C316.879 20.3828 317.676 19.7625 317.913 18.5218L320.04 9.03934C320.217 8.38945 320.63 8.06451 321.28 8.06451H324.914C325.741 8.06451 326.066 8.44853 325.889 9.21658L323.673 19.0535C323.496 19.9397 323.85 20.3828 324.737 20.3828H329.788C330.792 20.3828 331.294 20.7668 331.294 21.5349C331.294 22.4211 330.674 22.8642 329.433 22.8642H324.648C323.348 22.8642 322.551 23.4845 322.255 24.7252L314.811 57.1604C314.516 58.4602 314.545 59.4941 314.9 60.2622C315.313 60.9711 315.993 61.3256 316.938 61.3256C318.297 61.3256 319.537 60.5576 320.66 59.0215C321.842 57.4854 323.082 54.5609 324.382 50.248C324.618 49.48 325.002 49.096 325.534 49.096C325.948 49.096 326.214 49.2732 326.332 49.6277C326.45 49.9822 326.361 50.632 326.066 51.5773C324.943 55.5948 323.703 58.667 322.344 60.7939C321.044 62.9208 319.715 64.3978 318.356 65.2249C316.997 65.993 315.668 66.377 314.368 66.377Z" fill="black"/>
<path d="M334.969 66.377C332.96 66.377 331.394 65.5794 330.272 63.9842C329.149 62.3891 328.972 59.8191 329.74 56.2742L337.096 24.1935C337.273 23.3073 336.918 22.8642 336.032 22.8642H332.665C331.838 22.8642 331.424 22.4802 331.424 21.7121C331.424 21.2986 331.572 20.9736 331.867 20.7373C332.162 20.501 332.517 20.3828 332.931 20.3828H336.121C337.48 20.3828 338.277 19.7625 338.514 18.5218L340.641 9.03934C340.818 8.38945 341.231 8.06451 341.881 8.06451H345.515C346.342 8.06451 346.667 8.44853 346.489 9.21658L344.274 19.0535C344.097 19.9397 344.451 20.3828 345.337 20.3828H350.389C351.393 20.3828 351.895 20.7668 351.895 21.5349C351.895 22.4211 351.275 22.8642 350.034 22.8642H345.249C343.949 22.8642 343.151 23.4845 342.856 24.7252L335.412 57.1604C335.116 58.4602 335.146 59.4941 335.5 60.2622C335.914 60.9711 336.593 61.3256 337.539 61.3256C338.898 61.3256 340.138 60.5576 341.261 59.0215C342.442 57.4854 343.683 54.5609 344.983 50.248C345.219 49.48 345.603 49.096 346.135 49.096C346.549 49.096 346.814 49.2732 346.933 49.6277C347.051 49.9822 346.962 50.632 346.667 51.5773C345.544 55.5948 344.303 58.667 342.945 60.7939C341.645 62.9208 340.316 64.3978 338.957 65.2249C337.598 65.993 336.269 66.377 334.969 66.377Z" fill="black"/>
<path d="M357.443 66.377C354.312 66.377 351.801 65.1659 349.91 62.7436C348.02 60.2622 347.075 56.7764 347.075 52.2863C347.075 48.387 347.754 44.5172 349.113 40.677C350.531 36.8367 352.362 33.351 354.607 30.2197C356.852 27.0884 359.304 24.5775 361.963 22.6869C364.681 20.7964 367.31 19.8511 369.85 19.8511C372.627 19.8511 374.606 20.5305 375.788 21.8894C377.028 23.1891 377.649 24.9615 377.649 27.2066C377.649 29.8652 376.703 32.5239 374.813 35.1825C372.981 37.782 370.382 40.1157 367.014 42.1835C363.706 44.2513 359.806 45.7874 355.316 46.7918C354.016 47.0872 353.337 47.8257 353.278 49.0073C353.219 49.4209 353.189 49.864 353.189 50.3366C353.189 50.7502 353.189 51.1638 353.189 51.5773C353.189 54.9449 353.751 57.4854 354.873 59.1987C356.055 60.9121 357.65 61.7687 359.659 61.7687C361.904 61.7687 364.06 60.7348 366.128 58.667C368.255 56.5992 370.027 53.6747 371.445 49.8935C371.622 49.3618 371.977 49.096 372.509 49.096C372.863 49.096 373.07 49.2437 373.129 49.5391C373.247 49.8345 373.247 50.1889 373.129 50.6025C371.238 55.8016 368.934 59.7304 366.217 62.3891C363.558 65.0477 360.634 66.377 357.443 66.377ZM354.164 43.4242C354.046 43.8378 354.105 44.1923 354.341 44.4877C354.637 44.724 354.991 44.7831 355.405 44.6649C359.068 43.6605 362.14 42.154 364.621 40.1452C367.103 38.0774 368.964 35.7733 370.205 33.2328C371.504 30.6924 372.154 28.211 372.154 25.7887C372.154 23.3073 371.179 22.0666 369.23 22.0666C367.516 22.0666 365.655 23.071 363.647 25.0797C361.638 27.0884 359.777 29.7175 358.064 32.967C356.35 36.2164 355.05 39.7021 354.164 43.4242Z" fill="black"/>
<path d="M378.948 65.5794C378.12 65.5794 377.795 65.1954 377.973 64.4274L386.392 29.0676C386.687 27.7679 386.717 26.7635 386.48 26.0545C386.303 25.2865 385.771 24.9025 384.885 24.9025C383.822 24.9025 382.64 25.7001 381.34 27.2952C380.1 28.8313 378.682 31.7853 377.086 36.1573C376.85 36.9254 376.437 37.3094 375.846 37.3094C374.96 37.3094 374.723 36.7777 375.137 35.7142C376.437 31.6376 377.795 28.4473 379.213 26.1432C380.69 23.839 382.167 22.2143 383.644 21.269C385.121 20.3237 386.48 19.8511 387.721 19.8511C389.671 19.8511 391.059 20.5896 391.886 22.0666C392.713 23.4845 392.743 25.8478 391.975 29.1563L391 33.3214C390.941 33.735 391.029 33.9713 391.266 34.0304C391.502 34.0895 391.709 33.9418 391.886 33.5873C394.131 28.4473 396.17 24.8729 398.001 22.8642C399.833 20.8554 401.93 19.8511 404.293 19.8511C405.888 19.8511 407.07 20.2942 407.838 21.1804C408.665 22.0075 409.079 23.1596 409.079 24.6366C409.079 26.1136 408.724 27.2952 408.015 28.1814C407.306 29.0676 406.39 29.5107 405.268 29.5107C404.323 29.5107 403.643 29.2744 403.23 28.8018C402.816 28.3291 402.491 27.7974 402.255 27.2066C402.078 26.5567 401.871 25.9955 401.634 25.5228C401.398 25.0502 401.014 24.8138 400.482 24.8138C399.596 24.8138 398.444 25.9364 397.026 28.1814C395.608 30.4265 394.072 33.4691 392.418 37.3094C390.823 41.0905 389.257 45.3443 387.721 50.0708C386.244 54.7972 384.944 59.6418 383.822 64.6046C383.644 65.2545 383.231 65.5794 382.581 65.5794H378.948Z" fill="black"/>
<path d="M403.612 66.377C402.371 66.377 401.367 65.993 400.599 65.2249C399.831 64.3978 399.447 63.3934 399.447 62.2118C399.447 60.6757 399.978 59.435 401.042 58.4898C402.105 57.5445 403.228 57.0718 404.409 57.0718C405.591 57.0718 406.566 57.4854 407.334 58.3125C408.161 59.0806 408.575 60.0554 408.575 61.237C408.575 62.7731 408.043 64.0138 406.979 64.9591C405.916 65.9044 404.793 66.377 403.612 66.377Z" fill="black"/>
</svg>
