<svg width="78" height="22" viewBox="0 0 78 22" fill="none" xmlns="http://www.w3.org/2000/svg">
<path d="M28.181 16L26.158 11.877H25.143L24.681 11.772L24.877 10.372V10.148H26.165C26.5243 10.148 26.816 10.092 27.04 9.98C27.2687 9.86333 27.4367 9.7 27.544 9.49C27.656 9.27533 27.712 9.01867 27.712 8.72C27.712 8.37933 27.642 8.125 27.502 7.957C27.362 7.789 27.187 7.677 26.977 7.621C26.767 7.56033 26.5523 7.53 26.333 7.53L25.262 7.523L24.758 6.662L24.674 5.822C24.8467 5.822 25.0263 5.822 25.213 5.822C25.3997 5.822 25.6073 5.822 25.836 5.822C26.0647 5.822 26.3283 5.822 26.627 5.822C27.5837 5.822 28.3607 6.06933 28.958 6.564C29.56 7.05867 29.861 7.80767 29.861 8.811C29.861 9.147 29.8073 9.47833 29.7 9.805C29.5927 10.127 29.427 10.4233 29.203 10.694C28.979 10.96 28.6897 11.177 28.335 11.345C27.985 11.5083 27.5673 11.5993 27.082 11.618L27.376 11.506C27.572 11.506 27.747 11.5223 27.901 11.555C28.0597 11.5877 28.1997 11.6483 28.321 11.737C28.4423 11.8257 28.5427 11.9517 28.622 12.115L30.512 16H28.181ZM23.057 16V5.822H25.269V16H23.057ZM30.8145 16V5.822H37.3035V7.768H32.2775L32.9705 7.25V10.274L32.2775 9.833H36.8275V11.681H32.3685L32.9705 11.247V14.523L32.2775 13.998H37.5275V16H30.8145ZM39.1391 16V5.822H41.4001V15.314L40.0491 14.033H45.3271V16H39.1391ZM46.4836 16V5.822H52.9726V7.768H47.9466L48.6396 7.25V10.274L47.9466 9.833H52.4966V11.681H48.0376L48.6396 11.247V14.523L47.9466 13.998H53.1966V16H46.4836ZM53.2611 16L55.8021 5.822H59.2741L61.8151 16H59.4771L58.7281 12.71L59.9671 13.634H55.4381L55.5081 11.87H59.4911L58.7211 12.682L58.0631 9.371L57.6081 7.292H57.4681L57.0131 9.371L55.5991 16H53.2611ZM65.4357 16.14C64.6983 16.14 64.038 16.0187 63.4547 15.776C62.876 15.5287 62.4233 15.1483 62.0967 14.635C61.7747 14.1217 61.6277 13.466 61.6557 12.668H63.7907C63.8 13.004 63.8583 13.291 63.9657 13.529C64.0777 13.767 64.255 13.949 64.4977 14.075C64.745 14.1963 65.0717 14.257 65.4777 14.257C65.7717 14.257 66.0237 14.215 66.2337 14.131C66.4437 14.0423 66.6023 13.9187 66.7097 13.76C66.8217 13.6013 66.8777 13.4147 66.8777 13.2C66.8777 12.962 66.8053 12.773 66.6607 12.633C66.5207 12.493 66.3037 12.36 66.0097 12.234C65.7157 12.108 65.3423 11.9493 64.8897 11.758C64.3203 11.5153 63.8093 11.254 63.3567 10.974C62.9087 10.694 62.5563 10.358 62.2997 9.966C62.043 9.56933 61.9147 9.07933 61.9147 8.496C61.9147 7.88 62.057 7.362 62.3417 6.942C62.631 6.51733 63.0323 6.19767 63.5457 5.983C64.0637 5.76833 64.6657 5.661 65.3517 5.661C66.411 5.661 67.2207 5.927 67.7807 6.459C68.3407 6.98633 68.6557 7.768 68.7257 8.804H66.6327C66.6233 8.53333 66.565 8.30467 66.4577 8.118C66.3503 7.93133 66.2033 7.789 66.0167 7.691C65.83 7.593 65.6107 7.544 65.3587 7.544C64.976 7.544 64.6657 7.61867 64.4277 7.768C64.1897 7.91267 64.0707 8.14367 64.0707 8.461C64.0707 8.70367 64.1267 8.90667 64.2387 9.07C64.3507 9.23333 64.535 9.38733 64.7917 9.532C65.053 9.67667 65.3983 9.84467 65.8277 10.036C66.2337 10.2133 66.6303 10.379 67.0177 10.533C67.405 10.6823 67.7527 10.8573 68.0607 11.058C68.3687 11.254 68.6137 11.513 68.7957 11.835C68.9823 12.1523 69.0757 12.5677 69.0757 13.081C69.0803 13.7343 68.9263 14.2897 68.6137 14.747C68.301 15.2043 67.8693 15.552 67.3187 15.79C66.7727 16.0233 66.145 16.14 65.4357 16.14ZM69.9872 16V5.822H76.4762V7.768H71.4502L72.1432 7.25V10.274L71.4502 9.833H76.0002V11.681H71.5412L72.1432 11.247V14.523L71.4502 13.998H76.7002V16H69.9872Z" fill="black"/>
<path d="M13.7878 7.60544L13.7981 3.28575C13.7981 2.95097 13.8152 2.67939 13.8493 2.47101C13.8869 2.26262 13.9262 2.08157 13.9672 1.92784L14.0645 0.549438H15.4839V7.60544H13.7878ZM12.0712 8V6.6216H17.0366V8H12.0712ZM11.7074 2.91169V1.29757C11.9055 1.37614 12.1293 1.41543 12.3787 1.41543C12.6281 1.41543 12.8723 1.37956 13.1114 1.30782C13.3506 1.23608 13.5572 1.13701 13.7315 1.01062C13.9057 0.880803 14.0167 0.727077 14.0645 0.549438L13.9672 1.92784C13.8784 2.17722 13.7537 2.3839 13.5931 2.54787C13.436 2.70843 13.2532 2.82799 13.0448 2.90656C12.8399 2.98513 12.6229 3.02442 12.3941 3.02442C12.1652 3.02442 11.9363 2.98684 11.7074 2.91169Z" fill="black"/>
<path d="M9.77779 19C11.496 19 12.8889 15.3437 12.8889 10.8333H9.77779C9.77779 13.8562 9.15215 16.4954 8.22224 17.9074C7.29232 16.4954 6.66668 13.8562 6.66668 10.8333H3.55557C3.55557 13.8562 4.18121 16.4954 5.11112 17.9074C5.56873 18.6023 6.10001 19 6.66668 19H9.77779Z" fill="black"/>
<path d="M3.55557 2.66667C1.83735 2.66667 0.444458 6.32301 0.444458 10.8333H3.55557C3.55557 7.81052 4.18121 5.17128 5.11113 3.75922C6.04104 5.17128 6.66668 7.81052 6.66668 10.8333H9.77779C9.77779 7.81052 9.15215 5.17128 8.22224 3.75922C7.76484 3.06468 7.23306 2.66704 6.66668 2.66667H3.55557Z" fill="black"/>
</svg>
