<svg width="1440" height="655" viewBox="0 0 1440 655" fill="none" xmlns="http://www.w3.org/2000/svg">
<path d="M845 654C914.036 654 970 507.821 970 327.5M845 654C822.232 654 800.886 638.1 782.5 610.32M845 654H720M845 654H970M970 327.5V610.32M970 327.5V44.6799M720 654C697.232 654 675.886 638.1 657.5 610.32C620.137 553.867 595 448.351 595 327.5C595 206.649 620.137 101.133 657.5 44.6799M720 654C742.768 654 764.114 638.1 782.5 610.32M720 654H470M470 327.5C470 147.179 525.964 0.999997 595 1M470 327.5V610.32M470 327.5V44.6799M595 1C617.768 1 639.114 16.8996 657.5 44.6799M595 1L719.969 1.00001M595 1L470 1.00001M657.5 44.6799C694.863 101.133 720 206.649 720 327.5C720 448.351 745.137 553.867 782.5 610.32M657.5 44.6799C675.877 16.9125 697.212 1.01468 719.969 1.00001M782.5 610.32C819.863 553.867 845 448.351 845 327.5C845 206.649 819.863 101.133 782.5 44.6799C764.123 16.9124 742.788 1.01469 720.032 1.00001M719.969 1.00001C719.979 1 719.989 1 720 1C720.011 1 720.021 1 720.032 1.00001M719.969 1.00001L720.032 1.00001M719.969 1.00001H970M0 327.5H1440M470 1.00001V44.6799M470 1.00001H0M470 654V610.32M470 654H0M970 654V610.32M970 654H1440M970 1.00001V44.6799M970 1.00001H1440M470 610.32H970M470 44.6799L970 44.6799" stroke="#D9D9D9" stroke-dasharray="3 3"/>
</svg>
